G04 #@! TF.GenerationSoftware,KiCad,Pcbnew,(5.1.4)-1*
G04 #@! TF.CreationDate,2020-03-03T19:21:21-05:00*
G04 #@! TF.ProjectId,Main_Board,4d61696e-5f42-46f6-9172-642e6b696361,rev?*
G04 #@! TF.SameCoordinates,Original*
G04 #@! TF.FileFunction,Soldermask,Bot*
G04 #@! TF.FilePolarity,Negative*
%FSLAX46Y46*%
G04 Gerber Fmt 4.6, Leading zero omitted, Abs format (unit mm)*
G04 Created by KiCad (PCBNEW (5.1.4)-1) date 2020-03-03 19:21:21*
%MOMM*%
%LPD*%
G04 APERTURE LIST*
%ADD10O,1.700000X1.700000*%
%ADD11R,1.700000X1.700000*%
%ADD12C,1.440000*%
%ADD13O,1.200000X1.200000*%
%ADD14O,1.600000X1.200000*%
%ADD15C,1.524000*%
%ADD16O,1.600000X1.600000*%
%ADD17R,1.600000X1.600000*%
%ADD18C,3.500000*%
G04 APERTURE END LIST*
D10*
X89000000Y-143440000D03*
X89000000Y-140900000D03*
X89000000Y-138360000D03*
X89000000Y-135820000D03*
X89000000Y-133280000D03*
X89000000Y-130740000D03*
X89000000Y-128200000D03*
X89000000Y-125660000D03*
X89000000Y-123120000D03*
X89000000Y-120580000D03*
X89000000Y-118040000D03*
D11*
X89000000Y-115500000D03*
D12*
X59434500Y-100113500D03*
X61974500Y-100113500D03*
X64514500Y-100113500D03*
D13*
X17557670Y-109083667D03*
X19017670Y-108022915D03*
X20822330Y-108022915D03*
X22282330Y-109083667D03*
X22840000Y-110800000D03*
X22282330Y-112516333D03*
X20822330Y-113577085D03*
X19017670Y-113577085D03*
X17557670Y-112516333D03*
D14*
X17000000Y-110800000D03*
D15*
X60760000Y-144781000D03*
X60760000Y-142114000D03*
X60760000Y-139447000D03*
X60760000Y-136780000D03*
X60760000Y-134113000D03*
X60760000Y-131446000D03*
X60760000Y-128779000D03*
X60760000Y-126112000D03*
X60760000Y-123445000D03*
X60760000Y-120778000D03*
X60760000Y-118111000D03*
X60760000Y-115444000D03*
X60760000Y-112777000D03*
X60760000Y-110110000D03*
X44960000Y-144784000D03*
X44960000Y-142117000D03*
X44960000Y-139450000D03*
X44960000Y-136783000D03*
X44960000Y-134116000D03*
X44960000Y-131449000D03*
X44960000Y-128782000D03*
X44960000Y-126115000D03*
X44960000Y-123448000D03*
X44960000Y-120781000D03*
X44960000Y-118114000D03*
X44960000Y-115447000D03*
X44960000Y-112780000D03*
X44960000Y-110110000D03*
D16*
X33500000Y-119880000D03*
X41120000Y-127500000D03*
X36040000Y-119880000D03*
X38580000Y-127500000D03*
X38580000Y-119880000D03*
X36040000Y-127500000D03*
X41120000Y-119880000D03*
D17*
X33500000Y-127500000D03*
D18*
X16000000Y-167000000D03*
X98000000Y-85000000D03*
X16000000Y-85000000D03*
X98000000Y-167000000D03*
D10*
X78000000Y-143440000D03*
X78000000Y-140900000D03*
X78000000Y-138360000D03*
X78000000Y-135820000D03*
X78000000Y-133280000D03*
X78000000Y-130740000D03*
X78000000Y-128200000D03*
X78000000Y-125660000D03*
X78000000Y-123120000D03*
X78000000Y-120580000D03*
X78000000Y-118040000D03*
D11*
X78000000Y-115500000D03*
D10*
X67000000Y-143440000D03*
X67000000Y-140900000D03*
X67000000Y-138360000D03*
X67000000Y-135820000D03*
X67000000Y-133280000D03*
X67000000Y-130740000D03*
X67000000Y-128200000D03*
X67000000Y-125660000D03*
X67000000Y-123120000D03*
X67000000Y-120580000D03*
X67000000Y-118040000D03*
D11*
X67000000Y-115500000D03*
D13*
X61920000Y-164000000D03*
X64460000Y-161460000D03*
D14*
X67000000Y-164000000D03*
D13*
X44420000Y-164000000D03*
X46960000Y-161460000D03*
D14*
X49500000Y-164000000D03*
D13*
X16557670Y-130283667D03*
X18017670Y-129222915D03*
X19822330Y-129222915D03*
X21282330Y-130283667D03*
X21840000Y-132000000D03*
X21282330Y-133716333D03*
X19822330Y-134777085D03*
X18017670Y-134777085D03*
X16557670Y-133716333D03*
D14*
X16000000Y-132000000D03*
D13*
X46557670Y-86283667D03*
X48017670Y-85222915D03*
X49822330Y-85222915D03*
X51282330Y-86283667D03*
X51840000Y-88000000D03*
X51282330Y-89716333D03*
X49822330Y-90777085D03*
X48017670Y-90777085D03*
X46557670Y-89716333D03*
D14*
X46000000Y-88000000D03*
D13*
X24949070Y-86207467D03*
X26409070Y-85146715D03*
X28213730Y-85146715D03*
X29673730Y-86207467D03*
X30231400Y-87923800D03*
X29673730Y-89640133D03*
X28213730Y-90700885D03*
X26409070Y-90700885D03*
X24949070Y-89640133D03*
D14*
X24391400Y-87923800D03*
M02*
