M48
; DRILL file {KiCad (5.1.4)-1} date 3/3/2020 7:21:42 PM
; FORMAT={-:-/ absolute / inch / decimal}
; #@! TF.CreationDate,2020-03-03T19:21:42-05:00
; #@! TF.GenerationSoftware,Kicad,Pcbnew,(5.1.4)-1
FMAT,2
INCH
T1C0.0157
T2C0.0276
T3C0.0315
T4C0.0394
T5C0.0402
T6C0.1378
%
G90
G05
T1
X0.5551Y-4.6339
X0.7008Y-5.7087
X0.7165Y-5.5551
X0.7874Y-5.874
X0.8543Y-3.815
X0.8543Y-4.0118
X0.8858Y-4.7323
X0.9882Y-4.8819
X1.1142Y-4.1654
X1.1457Y-5.5433
X1.1732Y-5.4528
X1.2008Y-5.378
X1.3346Y-5.3583
X1.4134Y-3.4449
X1.5354Y-5.8858
X1.5512Y-4.311
X1.5748Y-6.189
X1.6624Y-5.489
X1.6929Y-3.9094
X1.8976Y-5.8898
X2.2244Y-3.4173
X2.2598Y-6.1969
X2.4924Y-4.334
X2.563Y-5.8622
X2.626Y-4.1772
T2
X1.7488Y-6.4567
X1.8488Y-6.3567
X1.9488Y-6.4567
X2.4378Y-6.4567
X2.5378Y-6.3567
X2.6378Y-6.4567
X0.9603Y-3.4616
X0.9822Y-3.394
X0.9822Y-3.5291
X1.0397Y-3.3522
X1.0397Y-3.5709
X1.1108Y-3.3522
X1.1108Y-3.5709
X1.1683Y-3.394
X1.1683Y-3.5291
X1.1902Y-3.4616
X0.6693Y-4.3622
X0.6912Y-4.2946
X0.6912Y-4.4298
X0.7487Y-4.2529
X0.7487Y-4.4715
X0.8198Y-4.2529
X0.8198Y-4.4715
X0.8773Y-4.2946
X0.8773Y-4.4298
X0.8992Y-4.3622
X0.6299Y-5.1969
X0.6519Y-5.1293
X0.6519Y-5.2644
X0.7094Y-5.0875
X0.7094Y-5.3062
X0.7804Y-5.0875
X0.7804Y-5.3062
X0.8379Y-5.1293
X0.8379Y-5.2644
X0.8598Y-5.1969
X1.811Y-3.4646
X1.833Y-3.397
X1.833Y-3.5321
X1.8905Y-3.3552
X1.8905Y-3.5739
X1.9615Y-3.3552
X1.9615Y-3.5739
X2.019Y-3.397
X2.019Y-3.5321
X2.0409Y-3.4646
T3
X2.3399Y-3.9415
X2.4399Y-3.9415
X2.5399Y-3.9415
X1.3189Y-4.7197
X1.3189Y-5.0197
X1.4189Y-4.7197
X1.4189Y-5.0197
X1.5189Y-4.7197
X1.5189Y-5.0197
X1.6189Y-4.7197
X1.6189Y-5.0197
T4
X3.0709Y-4.5472
X3.0709Y-4.6472
X3.0709Y-4.7472
X3.0709Y-4.8472
X3.0709Y-4.9472
X3.0709Y-5.0472
X3.0709Y-5.1472
X3.0709Y-5.2472
X3.0709Y-5.3472
X3.0709Y-5.4472
X3.0709Y-5.5472
X3.0709Y-5.6472
X3.5039Y-4.5472
X3.5039Y-4.6472
X3.5039Y-4.7472
X3.5039Y-4.8472
X3.5039Y-4.9472
X3.5039Y-5.0472
X3.5039Y-5.1472
X3.5039Y-5.2472
X3.5039Y-5.3472
X3.5039Y-5.4472
X3.5039Y-5.5472
X3.5039Y-5.6472
X2.6378Y-4.5472
X2.6378Y-4.6472
X2.6378Y-4.7472
X2.6378Y-4.8472
X2.6378Y-4.9472
X2.6378Y-5.0472
X2.6378Y-5.1472
X2.6378Y-5.2472
X2.6378Y-5.3472
X2.6378Y-5.4472
X2.6378Y-5.5472
X2.6378Y-5.6472
T5
X1.7701Y-4.335
X1.7701Y-4.4402
X1.7701Y-4.5452
X1.7701Y-4.6502
X1.7701Y-4.7552
X1.7701Y-4.8602
X1.7701Y-4.9652
X1.7701Y-5.0702
X1.7701Y-5.1752
X1.7701Y-5.2802
X1.7701Y-5.3852
X1.7701Y-5.4902
X1.7701Y-5.5952
X1.7701Y-5.7002
X2.3921Y-4.335
X2.3921Y-4.44
X2.3921Y-4.545
X2.3921Y-4.65
X2.3921Y-4.755
X2.3921Y-4.86
X2.3921Y-4.965
X2.3921Y-5.07
X2.3921Y-5.175
X2.3921Y-5.28
X2.3921Y-5.385
X2.3921Y-5.49
X2.3921Y-5.595
X2.3921Y-5.7
T6
X3.8583Y-3.3465
X0.6299Y-3.3465
X0.6299Y-6.5748
X3.8583Y-6.5748
T0
M30
