G04 #@! TF.GenerationSoftware,KiCad,Pcbnew,(5.1.4)-1*
G04 #@! TF.CreationDate,2020-03-03T19:21:21-05:00*
G04 #@! TF.ProjectId,Main_Board,4d61696e-5f42-46f6-9172-642e6b696361,rev?*
G04 #@! TF.SameCoordinates,Original*
G04 #@! TF.FileFunction,Legend,Top*
G04 #@! TF.FilePolarity,Positive*
%FSLAX46Y46*%
G04 Gerber Fmt 4.6, Leading zero omitted, Abs format (unit mm)*
G04 Created by KiCad (PCBNEW (5.1.4)-1) date 2020-03-03 19:21:21*
%MOMM*%
%LPD*%
G04 APERTURE LIST*
%ADD10C,0.300000*%
%ADD11C,0.120000*%
%ADD12C,0.150000*%
G04 APERTURE END LIST*
D10*
X68957142Y-85978571D02*
X68457142Y-85264285D01*
X68100000Y-85978571D02*
X68100000Y-84478571D01*
X68671428Y-84478571D01*
X68814285Y-84550000D01*
X68885714Y-84621428D01*
X68957142Y-84764285D01*
X68957142Y-84978571D01*
X68885714Y-85121428D01*
X68814285Y-85192857D01*
X68671428Y-85264285D01*
X68100000Y-85264285D01*
X69600000Y-85192857D02*
X70100000Y-85192857D01*
X70314285Y-85978571D02*
X69600000Y-85978571D01*
X69600000Y-84478571D01*
X70314285Y-84478571D01*
X70957142Y-85978571D02*
X70957142Y-84478571D01*
X71314285Y-84478571D01*
X71528571Y-84550000D01*
X71671428Y-84692857D01*
X71742857Y-84835714D01*
X71814285Y-85121428D01*
X71814285Y-85335714D01*
X71742857Y-85621428D01*
X71671428Y-85764285D01*
X71528571Y-85907142D01*
X71314285Y-85978571D01*
X70957142Y-85978571D01*
X72457142Y-85978571D02*
X72457142Y-84478571D01*
X72814285Y-84478571D01*
X73028571Y-84550000D01*
X73171428Y-84692857D01*
X73242857Y-84835714D01*
X73314285Y-85121428D01*
X73314285Y-85335714D01*
X73242857Y-85621428D01*
X73171428Y-85764285D01*
X73028571Y-85907142D01*
X72814285Y-85978571D01*
X72457142Y-85978571D01*
X74028571Y-84478571D02*
X73885714Y-84764285D01*
X74600000Y-85907142D02*
X74742857Y-85978571D01*
X75028571Y-85978571D01*
X75171428Y-85907142D01*
X75242857Y-85764285D01*
X75242857Y-85692857D01*
X75171428Y-85550000D01*
X75028571Y-85478571D01*
X74814285Y-85478571D01*
X74671428Y-85407142D01*
X74600000Y-85264285D01*
X74600000Y-85192857D01*
X74671428Y-85050000D01*
X74814285Y-84978571D01*
X75028571Y-84978571D01*
X75171428Y-85050000D01*
X77028571Y-85978571D02*
X77028571Y-84478571D01*
X77528571Y-85550000D01*
X78028571Y-84478571D01*
X78028571Y-85978571D01*
X79385714Y-85978571D02*
X79385714Y-85192857D01*
X79314285Y-85050000D01*
X79171428Y-84978571D01*
X78885714Y-84978571D01*
X78742857Y-85050000D01*
X79385714Y-85907142D02*
X79242857Y-85978571D01*
X78885714Y-85978571D01*
X78742857Y-85907142D01*
X78671428Y-85764285D01*
X78671428Y-85621428D01*
X78742857Y-85478571D01*
X78885714Y-85407142D01*
X79242857Y-85407142D01*
X79385714Y-85335714D01*
X80100000Y-85978571D02*
X80100000Y-84978571D01*
X80100000Y-84478571D02*
X80028571Y-84550000D01*
X80100000Y-84621428D01*
X80171428Y-84550000D01*
X80100000Y-84478571D01*
X80100000Y-84621428D01*
X80814285Y-84978571D02*
X80814285Y-85978571D01*
X80814285Y-85121428D02*
X80885714Y-85050000D01*
X81028571Y-84978571D01*
X81242857Y-84978571D01*
X81385714Y-85050000D01*
X81457142Y-85192857D01*
X81457142Y-85978571D01*
X83814285Y-85192857D02*
X84028571Y-85264285D01*
X84100000Y-85335714D01*
X84171428Y-85478571D01*
X84171428Y-85692857D01*
X84100000Y-85835714D01*
X84028571Y-85907142D01*
X83885714Y-85978571D01*
X83314285Y-85978571D01*
X83314285Y-84478571D01*
X83814285Y-84478571D01*
X83957142Y-84550000D01*
X84028571Y-84621428D01*
X84100000Y-84764285D01*
X84100000Y-84907142D01*
X84028571Y-85050000D01*
X83957142Y-85121428D01*
X83814285Y-85192857D01*
X83314285Y-85192857D01*
X85028571Y-85978571D02*
X84885714Y-85907142D01*
X84814285Y-85835714D01*
X84742857Y-85692857D01*
X84742857Y-85264285D01*
X84814285Y-85121428D01*
X84885714Y-85050000D01*
X85028571Y-84978571D01*
X85242857Y-84978571D01*
X85385714Y-85050000D01*
X85457142Y-85121428D01*
X85528571Y-85264285D01*
X85528571Y-85692857D01*
X85457142Y-85835714D01*
X85385714Y-85907142D01*
X85242857Y-85978571D01*
X85028571Y-85978571D01*
X86814285Y-85978571D02*
X86814285Y-85192857D01*
X86742857Y-85050000D01*
X86600000Y-84978571D01*
X86314285Y-84978571D01*
X86171428Y-85050000D01*
X86814285Y-85907142D02*
X86671428Y-85978571D01*
X86314285Y-85978571D01*
X86171428Y-85907142D01*
X86100000Y-85764285D01*
X86100000Y-85621428D01*
X86171428Y-85478571D01*
X86314285Y-85407142D01*
X86671428Y-85407142D01*
X86814285Y-85335714D01*
X87528571Y-85978571D02*
X87528571Y-84978571D01*
X87528571Y-85264285D02*
X87600000Y-85121428D01*
X87671428Y-85050000D01*
X87814285Y-84978571D01*
X87957142Y-84978571D01*
X89100000Y-85978571D02*
X89100000Y-84478571D01*
X89100000Y-85907142D02*
X88957142Y-85978571D01*
X88671428Y-85978571D01*
X88528571Y-85907142D01*
X88457142Y-85835714D01*
X88385714Y-85692857D01*
X88385714Y-85264285D01*
X88457142Y-85121428D01*
X88528571Y-85050000D01*
X88671428Y-84978571D01*
X88957142Y-84978571D01*
X89100000Y-85050000D01*
X99278571Y-156814285D02*
X97778571Y-156814285D01*
X98850000Y-156314285D01*
X97778571Y-155814285D01*
X99278571Y-155814285D01*
X99278571Y-154457142D02*
X98492857Y-154457142D01*
X98350000Y-154528571D01*
X98278571Y-154671428D01*
X98278571Y-154957142D01*
X98350000Y-155100000D01*
X99207142Y-154457142D02*
X99278571Y-154600000D01*
X99278571Y-154957142D01*
X99207142Y-155100000D01*
X99064285Y-155171428D01*
X98921428Y-155171428D01*
X98778571Y-155100000D01*
X98707142Y-154957142D01*
X98707142Y-154600000D01*
X98635714Y-154457142D01*
X99278571Y-153100000D02*
X97778571Y-153100000D01*
X99207142Y-153100000D02*
X99278571Y-153242857D01*
X99278571Y-153528571D01*
X99207142Y-153671428D01*
X99135714Y-153742857D01*
X98992857Y-153814285D01*
X98564285Y-153814285D01*
X98421428Y-153742857D01*
X98350000Y-153671428D01*
X98278571Y-153528571D01*
X98278571Y-153242857D01*
X98350000Y-153100000D01*
X99207142Y-151814285D02*
X99278571Y-151957142D01*
X99278571Y-152242857D01*
X99207142Y-152385714D01*
X99064285Y-152457142D01*
X98492857Y-152457142D01*
X98350000Y-152385714D01*
X98278571Y-152242857D01*
X98278571Y-151957142D01*
X98350000Y-151814285D01*
X98492857Y-151742857D01*
X98635714Y-151742857D01*
X98778571Y-152457142D01*
X99278571Y-149957142D02*
X97778571Y-149957142D01*
X98350000Y-149957142D02*
X98278571Y-149814285D01*
X98278571Y-149528571D01*
X98350000Y-149385714D01*
X98421428Y-149314285D01*
X98564285Y-149242857D01*
X98992857Y-149242857D01*
X99135714Y-149314285D01*
X99207142Y-149385714D01*
X99278571Y-149528571D01*
X99278571Y-149814285D01*
X99207142Y-149957142D01*
X98278571Y-148742857D02*
X99278571Y-148385714D01*
X98278571Y-148028571D02*
X99278571Y-148385714D01*
X99635714Y-148528571D01*
X99707142Y-148600000D01*
X99778571Y-148742857D01*
X99278571Y-146314285D02*
X97778571Y-146314285D01*
X99278571Y-145457142D02*
X98421428Y-146100000D01*
X97778571Y-145457142D02*
X98635714Y-146314285D01*
X99278571Y-144814285D02*
X98278571Y-144814285D01*
X98564285Y-144814285D02*
X98421428Y-144742857D01*
X98350000Y-144671428D01*
X98278571Y-144528571D01*
X98278571Y-144385714D01*
X99278571Y-143885714D02*
X98278571Y-143885714D01*
X97778571Y-143885714D02*
X97850000Y-143957142D01*
X97921428Y-143885714D01*
X97850000Y-143814285D01*
X97778571Y-143885714D01*
X97921428Y-143885714D01*
X99207142Y-143242857D02*
X99278571Y-143100000D01*
X99278571Y-142814285D01*
X99207142Y-142671428D01*
X99064285Y-142600000D01*
X98992857Y-142600000D01*
X98850000Y-142671428D01*
X98778571Y-142814285D01*
X98778571Y-143028571D01*
X98707142Y-143171428D01*
X98564285Y-143242857D01*
X98492857Y-143242857D01*
X98350000Y-143171428D01*
X98278571Y-143028571D01*
X98278571Y-142814285D01*
X98350000Y-142671428D01*
X99207142Y-140885714D02*
X99278571Y-140671428D01*
X99278571Y-140314285D01*
X99207142Y-140171428D01*
X99135714Y-140100000D01*
X98992857Y-140028571D01*
X98850000Y-140028571D01*
X98707142Y-140100000D01*
X98635714Y-140171428D01*
X98564285Y-140314285D01*
X98492857Y-140600000D01*
X98421428Y-140742857D01*
X98350000Y-140814285D01*
X98207142Y-140885714D01*
X98064285Y-140885714D01*
X97921428Y-140814285D01*
X97850000Y-140742857D01*
X97778571Y-140600000D01*
X97778571Y-140242857D01*
X97850000Y-140028571D01*
X98278571Y-139600000D02*
X98278571Y-139028571D01*
X97778571Y-139385714D02*
X99064285Y-139385714D01*
X99207142Y-139314285D01*
X99278571Y-139171428D01*
X99278571Y-139028571D01*
X99278571Y-138314285D02*
X99207142Y-138457142D01*
X99135714Y-138528571D01*
X98992857Y-138600000D01*
X98564285Y-138600000D01*
X98421428Y-138528571D01*
X98350000Y-138457142D01*
X98278571Y-138314285D01*
X98278571Y-138100000D01*
X98350000Y-137957142D01*
X98421428Y-137885714D01*
X98564285Y-137814285D01*
X98992857Y-137814285D01*
X99135714Y-137885714D01*
X99207142Y-137957142D01*
X99278571Y-138100000D01*
X99278571Y-138314285D01*
X98278571Y-137171428D02*
X99278571Y-137171428D01*
X98421428Y-137171428D02*
X98350000Y-137100000D01*
X98278571Y-136957142D01*
X98278571Y-136742857D01*
X98350000Y-136600000D01*
X98492857Y-136528571D01*
X99278571Y-136528571D01*
X99207142Y-135242857D02*
X99278571Y-135385714D01*
X99278571Y-135671428D01*
X99207142Y-135814285D01*
X99064285Y-135885714D01*
X98492857Y-135885714D01*
X98350000Y-135814285D01*
X98278571Y-135671428D01*
X98278571Y-135385714D01*
X98350000Y-135242857D01*
X98492857Y-135171428D01*
X98635714Y-135171428D01*
X98778571Y-135885714D01*
X99278571Y-132742857D02*
X98492857Y-132742857D01*
X98350000Y-132814285D01*
X98278571Y-132957142D01*
X98278571Y-133242857D01*
X98350000Y-133385714D01*
X99207142Y-132742857D02*
X99278571Y-132885714D01*
X99278571Y-133242857D01*
X99207142Y-133385714D01*
X99064285Y-133457142D01*
X98921428Y-133457142D01*
X98778571Y-133385714D01*
X98707142Y-133242857D01*
X98707142Y-132885714D01*
X98635714Y-132742857D01*
X98278571Y-132028571D02*
X99278571Y-132028571D01*
X98421428Y-132028571D02*
X98350000Y-131957142D01*
X98278571Y-131814285D01*
X98278571Y-131600000D01*
X98350000Y-131457142D01*
X98492857Y-131385714D01*
X99278571Y-131385714D01*
X99278571Y-130028571D02*
X97778571Y-130028571D01*
X99207142Y-130028571D02*
X99278571Y-130171428D01*
X99278571Y-130457142D01*
X99207142Y-130600000D01*
X99135714Y-130671428D01*
X98992857Y-130742857D01*
X98564285Y-130742857D01*
X98421428Y-130671428D01*
X98350000Y-130600000D01*
X98278571Y-130457142D01*
X98278571Y-130171428D01*
X98350000Y-130028571D01*
X97778571Y-128385714D02*
X97778571Y-127528571D01*
X99278571Y-127957142D02*
X97778571Y-127957142D01*
X98278571Y-127171428D02*
X99278571Y-126814285D01*
X98278571Y-126457142D02*
X99278571Y-126814285D01*
X99635714Y-126957142D01*
X99707142Y-127028571D01*
X99778571Y-127171428D01*
X99278571Y-125671428D02*
X99207142Y-125814285D01*
X99064285Y-125885714D01*
X97778571Y-125885714D01*
X99207142Y-124528571D02*
X99278571Y-124671428D01*
X99278571Y-124957142D01*
X99207142Y-125100000D01*
X99064285Y-125171428D01*
X98492857Y-125171428D01*
X98350000Y-125100000D01*
X98278571Y-124957142D01*
X98278571Y-124671428D01*
X98350000Y-124528571D01*
X98492857Y-124457142D01*
X98635714Y-124457142D01*
X98778571Y-125171428D01*
X99278571Y-123814285D02*
X98278571Y-123814285D01*
X98564285Y-123814285D02*
X98421428Y-123742857D01*
X98350000Y-123671428D01*
X98278571Y-123528571D01*
X98278571Y-123385714D01*
X99278571Y-121742857D02*
X97778571Y-121742857D01*
X99278571Y-120885714D02*
X98421428Y-121528571D01*
X97778571Y-120885714D02*
X98635714Y-121742857D01*
X99278571Y-120242857D02*
X98278571Y-120242857D01*
X98564285Y-120242857D02*
X98421428Y-120171428D01*
X98350000Y-120100000D01*
X98278571Y-119957142D01*
X98278571Y-119814285D01*
X99278571Y-119100000D02*
X99207142Y-119242857D01*
X99135714Y-119314285D01*
X98992857Y-119385714D01*
X98564285Y-119385714D01*
X98421428Y-119314285D01*
X98350000Y-119242857D01*
X98278571Y-119100000D01*
X98278571Y-118885714D01*
X98350000Y-118742857D01*
X98421428Y-118671428D01*
X98564285Y-118600000D01*
X98992857Y-118600000D01*
X99135714Y-118671428D01*
X99207142Y-118742857D01*
X99278571Y-118885714D01*
X99278571Y-119100000D01*
X99207142Y-117314285D02*
X99278571Y-117457142D01*
X99278571Y-117742857D01*
X99207142Y-117885714D01*
X99135714Y-117957142D01*
X98992857Y-118028571D01*
X98564285Y-118028571D01*
X98421428Y-117957142D01*
X98350000Y-117885714D01*
X98278571Y-117742857D01*
X98278571Y-117457142D01*
X98350000Y-117314285D01*
X99278571Y-116671428D02*
X97778571Y-116671428D01*
X99278571Y-116028571D02*
X98492857Y-116028571D01*
X98350000Y-116100000D01*
X98278571Y-116242857D01*
X98278571Y-116457142D01*
X98350000Y-116600000D01*
X98421428Y-116671428D01*
X99278571Y-115314285D02*
X98278571Y-115314285D01*
X98421428Y-115314285D02*
X98350000Y-115242857D01*
X98278571Y-115100000D01*
X98278571Y-114885714D01*
X98350000Y-114742857D01*
X98492857Y-114671428D01*
X99278571Y-114671428D01*
X98492857Y-114671428D02*
X98350000Y-114600000D01*
X98278571Y-114457142D01*
X98278571Y-114242857D01*
X98350000Y-114100000D01*
X98492857Y-114028571D01*
X99278571Y-114028571D01*
X99278571Y-112671428D02*
X98492857Y-112671428D01*
X98350000Y-112742857D01*
X98278571Y-112885714D01*
X98278571Y-113171428D01*
X98350000Y-113314285D01*
X99207142Y-112671428D02*
X99278571Y-112814285D01*
X99278571Y-113171428D01*
X99207142Y-113314285D01*
X99064285Y-113385714D01*
X98921428Y-113385714D01*
X98778571Y-113314285D01*
X98707142Y-113171428D01*
X98707142Y-112814285D01*
X98635714Y-112671428D01*
X99278571Y-111742857D02*
X99207142Y-111885714D01*
X99064285Y-111957142D01*
X97778571Y-111957142D01*
X98278571Y-111171428D02*
X99278571Y-111171428D01*
X98421428Y-111171428D02*
X98350000Y-111100000D01*
X98278571Y-110957142D01*
X98278571Y-110742857D01*
X98350000Y-110600000D01*
X98492857Y-110528571D01*
X99278571Y-110528571D01*
X98278571Y-109957142D02*
X99278571Y-109600000D01*
X98278571Y-109242857D02*
X99278571Y-109600000D01*
X99635714Y-109742857D01*
X99707142Y-109814285D01*
X99778571Y-109957142D01*
D11*
X87670000Y-114170000D02*
X89000000Y-114170000D01*
X87670000Y-115500000D02*
X87670000Y-114170000D01*
X87670000Y-116770000D02*
X90330000Y-116770000D01*
X90330000Y-116770000D02*
X90330000Y-144770000D01*
X87670000Y-116770000D02*
X87670000Y-144770000D01*
X87670000Y-144770000D02*
X90330000Y-144770000D01*
X66859500Y-98083500D02*
X66859500Y-104423500D01*
X57089500Y-98083500D02*
X57089500Y-104423500D01*
X57089500Y-104423500D02*
X66859500Y-104423500D01*
X57089500Y-98083500D02*
X66859500Y-98083500D01*
X15254144Y-106911961D02*
X16145098Y-107802916D01*
X16031961Y-106134144D02*
X15254144Y-106911961D01*
X16922916Y-107025098D02*
X16031961Y-106134144D01*
X16145326Y-107802629D02*
G75*
G03X16922916Y-107025098I3774674J-2997371D01*
G01*
X59819000Y-145670000D02*
X45849000Y-145670000D01*
X59819000Y-108840000D02*
X45849000Y-108840000D01*
X45849000Y-108840000D02*
X45849000Y-145670000D01*
X59819000Y-108840000D02*
X59819000Y-145670000D01*
X32170000Y-121040000D02*
X32170000Y-122690000D01*
X42450000Y-121040000D02*
X32170000Y-121040000D01*
X42450000Y-126340000D02*
X42450000Y-121040000D01*
X32170000Y-126340000D02*
X42450000Y-126340000D01*
X32170000Y-124690000D02*
X32170000Y-126340000D01*
X32170000Y-122690000D02*
G75*
G02X32170000Y-124690000I0J-1000000D01*
G01*
X36210000Y-114696078D02*
X36210000Y-114178922D01*
X34790000Y-114696078D02*
X34790000Y-114178922D01*
X36696078Y-108790000D02*
X36178922Y-108790000D01*
X36696078Y-110210000D02*
X36178922Y-110210000D01*
X39790000Y-114303922D02*
X39790000Y-114821078D01*
X41210000Y-114303922D02*
X41210000Y-114821078D01*
X22303922Y-124710000D02*
X22821078Y-124710000D01*
X22303922Y-123290000D02*
X22821078Y-123290000D01*
X76670000Y-114170000D02*
X78000000Y-114170000D01*
X76670000Y-115500000D02*
X76670000Y-114170000D01*
X76670000Y-116770000D02*
X79330000Y-116770000D01*
X79330000Y-116770000D02*
X79330000Y-144770000D01*
X76670000Y-116770000D02*
X76670000Y-144770000D01*
X76670000Y-144770000D02*
X79330000Y-144770000D01*
X65670000Y-114170000D02*
X67000000Y-114170000D01*
X65670000Y-115500000D02*
X65670000Y-114170000D01*
X65670000Y-116770000D02*
X68330000Y-116770000D01*
X68330000Y-116770000D02*
X68330000Y-144770000D01*
X65670000Y-116770000D02*
X65670000Y-144770000D01*
X65670000Y-144770000D02*
X68330000Y-144770000D01*
X22800000Y-146250000D02*
X31200000Y-146250000D01*
X22800000Y-152750000D02*
X31200000Y-152750000D01*
X22800000Y-152750000D02*
X22800000Y-146250000D01*
X25600000Y-130350000D02*
X31000000Y-130350000D01*
X25600000Y-133650000D02*
X31000000Y-133650000D01*
X25600000Y-130350000D02*
X25600000Y-133650000D01*
X15321078Y-119090000D02*
X14803922Y-119090000D01*
X15321078Y-120510000D02*
X14803922Y-120510000D01*
X20196078Y-119090000D02*
X19678922Y-119090000D01*
X20196078Y-120510000D02*
X19678922Y-120510000D01*
X50909378Y-153971400D02*
X50392222Y-153971400D01*
X50909378Y-155391400D02*
X50392222Y-155391400D01*
X43303922Y-150210000D02*
X43821078Y-150210000D01*
X43303922Y-148790000D02*
X43821078Y-148790000D01*
X25321078Y-119090000D02*
X24803922Y-119090000D01*
X25321078Y-120510000D02*
X24803922Y-120510000D01*
X68271878Y-154161400D02*
X67754722Y-154161400D01*
X68271878Y-155581400D02*
X67754722Y-155581400D01*
X60803922Y-150710000D02*
X61321078Y-150710000D01*
X60803922Y-149290000D02*
X61321078Y-149290000D01*
X41710000Y-90258578D02*
X41710000Y-89741422D01*
X40290000Y-90258578D02*
X40290000Y-89741422D01*
X46149978Y-96213800D02*
X45632822Y-96213800D01*
X46149978Y-97633800D02*
X45632822Y-97633800D01*
X52149978Y-96213800D02*
X51632822Y-96213800D01*
X52149978Y-97633800D02*
X51632822Y-97633800D01*
X34303922Y-157210000D02*
X34821078Y-157210000D01*
X34303922Y-155790000D02*
X34821078Y-155790000D01*
X19290000Y-152678922D02*
X19290000Y-153196078D01*
X20710000Y-152678922D02*
X20710000Y-153196078D01*
X15821078Y-149790000D02*
X15303922Y-149790000D01*
X15821078Y-151210000D02*
X15303922Y-151210000D01*
X34681400Y-89727722D02*
X34681400Y-90244878D01*
X36101400Y-89727722D02*
X36101400Y-90244878D01*
X24649978Y-101213800D02*
X24132822Y-101213800D01*
X24649978Y-102633800D02*
X24132822Y-102633800D01*
X30649978Y-96213800D02*
X30132822Y-96213800D01*
X30649978Y-97633800D02*
X30132822Y-97633800D01*
X30790000Y-142012822D02*
X30790000Y-142529978D01*
X32210000Y-142012822D02*
X32210000Y-142529978D01*
X14790000Y-141803922D02*
X14790000Y-142321078D01*
X16210000Y-141803922D02*
X16210000Y-142321078D01*
X25790000Y-142075322D02*
X25790000Y-142592478D01*
X27210000Y-142075322D02*
X27210000Y-142592478D01*
X36178922Y-144710000D02*
X36696078Y-144710000D01*
X36178922Y-143290000D02*
X36696078Y-143290000D01*
X30910000Y-155750000D02*
X30910000Y-161760000D01*
X24090000Y-158000000D02*
X24090000Y-161760000D01*
X30910000Y-161760000D02*
X29650000Y-161760000D01*
X24090000Y-161760000D02*
X25350000Y-161760000D01*
X38080000Y-137240000D02*
X38080000Y-138700000D01*
X34920000Y-137240000D02*
X34920000Y-139400000D01*
X34920000Y-137240000D02*
X35850000Y-137240000D01*
X38080000Y-137240000D02*
X37150000Y-137240000D01*
X36178922Y-150210000D02*
X36696078Y-150210000D01*
X36178922Y-148790000D02*
X36696078Y-148790000D01*
X43454722Y-155391400D02*
X43971878Y-155391400D01*
X43454722Y-153971400D02*
X43971878Y-153971400D01*
X17196078Y-101790000D02*
X16678922Y-101790000D01*
X17196078Y-103210000D02*
X16678922Y-103210000D01*
X50454722Y-150311400D02*
X50971878Y-150311400D01*
X50454722Y-148891400D02*
X50971878Y-148891400D01*
X38290000Y-162741422D02*
X38290000Y-163258578D01*
X39710000Y-162741422D02*
X39710000Y-163258578D01*
X27290000Y-109303922D02*
X27290000Y-109821078D01*
X28710000Y-109303922D02*
X28710000Y-109821078D01*
X60754722Y-155581400D02*
X61271878Y-155581400D01*
X60754722Y-154161400D02*
X61271878Y-154161400D01*
X55790000Y-83878922D02*
X55790000Y-84396078D01*
X57210000Y-83878922D02*
X57210000Y-84396078D01*
X67692222Y-150710000D02*
X68209378Y-150710000D01*
X67692222Y-149290000D02*
X68209378Y-149290000D01*
X40681400Y-84803922D02*
X40681400Y-85321078D01*
X42101400Y-84803922D02*
X42101400Y-85321078D01*
X55290000Y-164303922D02*
X55290000Y-164821078D01*
X56710000Y-164303922D02*
X56710000Y-164821078D01*
X46087478Y-101213800D02*
X45570322Y-101213800D01*
X46087478Y-102633800D02*
X45570322Y-102633800D01*
X26052500Y-137303922D02*
X26052500Y-137821078D01*
X27472500Y-137303922D02*
X27472500Y-137821078D01*
X20710000Y-146921078D02*
X20710000Y-146403922D01*
X19290000Y-146921078D02*
X19290000Y-146403922D01*
X20290000Y-89741422D02*
X20290000Y-90258578D01*
X21710000Y-89741422D02*
X21710000Y-90258578D01*
X24649978Y-96213800D02*
X24132822Y-96213800D01*
X24649978Y-97633800D02*
X24132822Y-97633800D01*
X20290000Y-141803922D02*
X20290000Y-142321078D01*
X21710000Y-141803922D02*
X21710000Y-142321078D01*
X34290000Y-84803922D02*
X34290000Y-85321078D01*
X35710000Y-84803922D02*
X35710000Y-85321078D01*
X68234674Y-166997371D02*
G75*
G03X67457084Y-167774902I-3774674J2997371D01*
G01*
X69125856Y-167888039D02*
X68234902Y-166997084D01*
X68348039Y-168665856D02*
X69125856Y-167888039D01*
X67457084Y-167774902D02*
X68348039Y-168665856D01*
X50734674Y-166997371D02*
G75*
G03X49957084Y-167774902I-3774674J2997371D01*
G01*
X51625856Y-167888039D02*
X50734902Y-166997084D01*
X50848039Y-168665856D02*
X51625856Y-167888039D01*
X49957084Y-167774902D02*
X50848039Y-168665856D01*
X14254144Y-128111961D02*
X15145098Y-129002916D01*
X15031961Y-127334144D02*
X14254144Y-128111961D01*
X15922916Y-128225098D02*
X15031961Y-127334144D01*
X15145326Y-129002629D02*
G75*
G03X15922916Y-128225098I3774674J-2997371D01*
G01*
X44254144Y-84111961D02*
X45145098Y-85002916D01*
X45031961Y-83334144D02*
X44254144Y-84111961D01*
X45922916Y-84225098D02*
X45031961Y-83334144D01*
X45145326Y-85002629D02*
G75*
G03X45922916Y-84225098I3774674J-2997371D01*
G01*
X22645544Y-84035761D02*
X23536498Y-84926716D01*
X23423361Y-83257944D02*
X22645544Y-84035761D01*
X24314316Y-84148898D02*
X23423361Y-83257944D01*
X23536726Y-84926429D02*
G75*
G03X24314316Y-84148898I3774674J-2997371D01*
G01*
D12*
X92852380Y-129619047D02*
X91852380Y-129619047D01*
X92566666Y-129285714D01*
X91852380Y-128952380D01*
X92852380Y-128952380D01*
X92804761Y-128095238D02*
X92852380Y-128190476D01*
X92852380Y-128380952D01*
X92804761Y-128476190D01*
X92709523Y-128523809D01*
X92328571Y-128523809D01*
X92233333Y-128476190D01*
X92185714Y-128380952D01*
X92185714Y-128190476D01*
X92233333Y-128095238D01*
X92328571Y-128047619D01*
X92423809Y-128047619D01*
X92519047Y-128523809D01*
X92852380Y-127190476D02*
X92328571Y-127190476D01*
X92233333Y-127238095D01*
X92185714Y-127333333D01*
X92185714Y-127523809D01*
X92233333Y-127619047D01*
X92804761Y-127190476D02*
X92852380Y-127285714D01*
X92852380Y-127523809D01*
X92804761Y-127619047D01*
X92709523Y-127666666D01*
X92614285Y-127666666D01*
X92519047Y-127619047D01*
X92471428Y-127523809D01*
X92471428Y-127285714D01*
X92423809Y-127190476D01*
X92804761Y-126761904D02*
X92852380Y-126666666D01*
X92852380Y-126476190D01*
X92804761Y-126380952D01*
X92709523Y-126333333D01*
X92661904Y-126333333D01*
X92566666Y-126380952D01*
X92519047Y-126476190D01*
X92519047Y-126619047D01*
X92471428Y-126714285D01*
X92376190Y-126761904D01*
X92328571Y-126761904D01*
X92233333Y-126714285D01*
X92185714Y-126619047D01*
X92185714Y-126476190D01*
X92233333Y-126380952D01*
X92185714Y-125476190D02*
X92852380Y-125476190D01*
X92185714Y-125904761D02*
X92709523Y-125904761D01*
X92804761Y-125857142D01*
X92852380Y-125761904D01*
X92852380Y-125619047D01*
X92804761Y-125523809D01*
X92757142Y-125476190D01*
X92852380Y-125000000D02*
X92185714Y-125000000D01*
X92376190Y-125000000D02*
X92280952Y-124952380D01*
X92233333Y-124904761D01*
X92185714Y-124809523D01*
X92185714Y-124714285D01*
X92804761Y-124000000D02*
X92852380Y-124095238D01*
X92852380Y-124285714D01*
X92804761Y-124380952D01*
X92709523Y-124428571D01*
X92328571Y-124428571D01*
X92233333Y-124380952D01*
X92185714Y-124285714D01*
X92185714Y-124095238D01*
X92233333Y-124000000D01*
X92328571Y-123952380D01*
X92423809Y-123952380D01*
X92519047Y-124428571D01*
X92852380Y-123523809D02*
X92185714Y-123523809D01*
X92280952Y-123523809D02*
X92233333Y-123476190D01*
X92185714Y-123380952D01*
X92185714Y-123238095D01*
X92233333Y-123142857D01*
X92328571Y-123095238D01*
X92852380Y-123095238D01*
X92328571Y-123095238D02*
X92233333Y-123047619D01*
X92185714Y-122952380D01*
X92185714Y-122809523D01*
X92233333Y-122714285D01*
X92328571Y-122666666D01*
X92852380Y-122666666D01*
X92804761Y-121809523D02*
X92852380Y-121904761D01*
X92852380Y-122095238D01*
X92804761Y-122190476D01*
X92709523Y-122238095D01*
X92328571Y-122238095D01*
X92233333Y-122190476D01*
X92185714Y-122095238D01*
X92185714Y-121904761D01*
X92233333Y-121809523D01*
X92328571Y-121761904D01*
X92423809Y-121761904D01*
X92519047Y-122238095D01*
X92185714Y-121333333D02*
X92852380Y-121333333D01*
X92280952Y-121333333D02*
X92233333Y-121285714D01*
X92185714Y-121190476D01*
X92185714Y-121047619D01*
X92233333Y-120952380D01*
X92328571Y-120904761D01*
X92852380Y-120904761D01*
X92185714Y-120571428D02*
X92185714Y-120190476D01*
X91852380Y-120428571D02*
X92709523Y-120428571D01*
X92804761Y-120380952D01*
X92852380Y-120285714D01*
X92852380Y-120190476D01*
X92947619Y-120095238D02*
X92947619Y-119333333D01*
X92852380Y-119095238D02*
X91852380Y-119095238D01*
X92328571Y-119095238D02*
X92328571Y-118523809D01*
X92852380Y-118523809D02*
X91852380Y-118523809D01*
X92804761Y-117666666D02*
X92852380Y-117761904D01*
X92852380Y-117952380D01*
X92804761Y-118047619D01*
X92709523Y-118095238D01*
X92328571Y-118095238D01*
X92233333Y-118047619D01*
X92185714Y-117952380D01*
X92185714Y-117761904D01*
X92233333Y-117666666D01*
X92328571Y-117619047D01*
X92423809Y-117619047D01*
X92519047Y-118095238D01*
X92852380Y-116761904D02*
X92328571Y-116761904D01*
X92233333Y-116809523D01*
X92185714Y-116904761D01*
X92185714Y-117095238D01*
X92233333Y-117190476D01*
X92804761Y-116761904D02*
X92852380Y-116857142D01*
X92852380Y-117095238D01*
X92804761Y-117190476D01*
X92709523Y-117238095D01*
X92614285Y-117238095D01*
X92519047Y-117190476D01*
X92471428Y-117095238D01*
X92471428Y-116857142D01*
X92423809Y-116761904D01*
X92852380Y-115857142D02*
X91852380Y-115857142D01*
X92804761Y-115857142D02*
X92852380Y-115952380D01*
X92852380Y-116142857D01*
X92804761Y-116238095D01*
X92757142Y-116285714D01*
X92661904Y-116333333D01*
X92376190Y-116333333D01*
X92280952Y-116285714D01*
X92233333Y-116238095D01*
X92185714Y-116142857D01*
X92185714Y-115952380D01*
X92233333Y-115857142D01*
X92804761Y-115000000D02*
X92852380Y-115095238D01*
X92852380Y-115285714D01*
X92804761Y-115380952D01*
X92709523Y-115428571D01*
X92328571Y-115428571D01*
X92233333Y-115380952D01*
X92185714Y-115285714D01*
X92185714Y-115095238D01*
X92233333Y-115000000D01*
X92328571Y-114952380D01*
X92423809Y-114952380D01*
X92519047Y-115428571D01*
X92852380Y-114523809D02*
X92185714Y-114523809D01*
X92376190Y-114523809D02*
X92280952Y-114476190D01*
X92233333Y-114428571D01*
X92185714Y-114333333D01*
X92185714Y-114238095D01*
X62333333Y-97452380D02*
X61761904Y-97452380D01*
X62047619Y-97452380D02*
X62047619Y-96452380D01*
X61952380Y-96595238D01*
X61857142Y-96690476D01*
X61761904Y-96738095D01*
X62952380Y-96452380D02*
X63047619Y-96452380D01*
X63142857Y-96500000D01*
X63190476Y-96547619D01*
X63238095Y-96642857D01*
X63285714Y-96833333D01*
X63285714Y-97071428D01*
X63238095Y-97261904D01*
X63190476Y-97357142D01*
X63142857Y-97404761D01*
X63047619Y-97452380D01*
X62952380Y-97452380D01*
X62857142Y-97404761D01*
X62809523Y-97357142D01*
X62761904Y-97261904D01*
X62714285Y-97071428D01*
X62714285Y-96833333D01*
X62761904Y-96642857D01*
X62809523Y-96547619D01*
X62857142Y-96500000D01*
X62952380Y-96452380D01*
X63904761Y-96452380D02*
X64000000Y-96452380D01*
X64095238Y-96500000D01*
X64142857Y-96547619D01*
X64190476Y-96642857D01*
X64238095Y-96833333D01*
X64238095Y-97071428D01*
X64190476Y-97261904D01*
X64142857Y-97357142D01*
X64095238Y-97404761D01*
X64000000Y-97452380D01*
X63904761Y-97452380D01*
X63809523Y-97404761D01*
X63761904Y-97357142D01*
X63714285Y-97261904D01*
X63666666Y-97071428D01*
X63666666Y-96833333D01*
X63714285Y-96642857D01*
X63761904Y-96547619D01*
X63809523Y-96500000D01*
X63904761Y-96452380D01*
X34052380Y-115414285D02*
X34052380Y-115985714D01*
X34052380Y-115700000D02*
X33052380Y-115700000D01*
X33195238Y-115795238D01*
X33290476Y-115890476D01*
X33338095Y-115985714D01*
X34052380Y-114985714D02*
X33052380Y-114985714D01*
X34052380Y-114414285D02*
X33480952Y-114842857D01*
X33052380Y-114414285D02*
X33623809Y-114985714D01*
X33226895Y-108901580D02*
X32750704Y-108901580D01*
X32703085Y-109377771D01*
X32750704Y-109330152D01*
X32845942Y-109282533D01*
X33084038Y-109282533D01*
X33179276Y-109330152D01*
X33226895Y-109377771D01*
X33274514Y-109473009D01*
X33274514Y-109711104D01*
X33226895Y-109806342D01*
X33179276Y-109853961D01*
X33084038Y-109901580D01*
X32845942Y-109901580D01*
X32750704Y-109853961D01*
X32703085Y-109806342D01*
X33703085Y-109901580D02*
X33703085Y-108901580D01*
X34274514Y-109901580D02*
X33845942Y-109330152D01*
X34274514Y-108901580D02*
X33703085Y-109473009D01*
X40257142Y-111347619D02*
X40304761Y-111300000D01*
X40400000Y-111252380D01*
X40638095Y-111252380D01*
X40733333Y-111300000D01*
X40780952Y-111347619D01*
X40828571Y-111442857D01*
X40828571Y-111538095D01*
X40780952Y-111680952D01*
X40209523Y-112252380D01*
X40828571Y-112252380D01*
X41447619Y-111252380D02*
X41542857Y-111252380D01*
X41638095Y-111300000D01*
X41685714Y-111347619D01*
X41733333Y-111442857D01*
X41780952Y-111633333D01*
X41780952Y-111871428D01*
X41733333Y-112061904D01*
X41685714Y-112157142D01*
X41638095Y-112204761D01*
X41542857Y-112252380D01*
X41447619Y-112252380D01*
X41352380Y-112204761D01*
X41304761Y-112157142D01*
X41257142Y-112061904D01*
X41209523Y-111871428D01*
X41209523Y-111633333D01*
X41257142Y-111442857D01*
X41304761Y-111347619D01*
X41352380Y-111300000D01*
X41447619Y-111252380D01*
X42209523Y-111585714D02*
X42209523Y-112585714D01*
X42209523Y-111633333D02*
X42304761Y-111585714D01*
X42495238Y-111585714D01*
X42590476Y-111633333D01*
X42638095Y-111680952D01*
X42685714Y-111776190D01*
X42685714Y-112061904D01*
X42638095Y-112157142D01*
X42590476Y-112204761D01*
X42495238Y-112252380D01*
X42304761Y-112252380D01*
X42209523Y-112204761D01*
X43447619Y-111728571D02*
X43114285Y-111728571D01*
X43114285Y-112252380D02*
X43114285Y-111252380D01*
X43590476Y-111252380D01*
X21919642Y-126352380D02*
X21348214Y-126352380D01*
X21633928Y-126352380D02*
X21633928Y-125352380D01*
X21538690Y-125495238D01*
X21443452Y-125590476D01*
X21348214Y-125638095D01*
X22824404Y-125352380D02*
X22348214Y-125352380D01*
X22300595Y-125828571D01*
X22348214Y-125780952D01*
X22443452Y-125733333D01*
X22681547Y-125733333D01*
X22776785Y-125780952D01*
X22824404Y-125828571D01*
X22872023Y-125923809D01*
X22872023Y-126161904D01*
X22824404Y-126257142D01*
X22776785Y-126304761D01*
X22681547Y-126352380D01*
X22443452Y-126352380D01*
X22348214Y-126304761D01*
X22300595Y-126257142D01*
X23300595Y-125685714D02*
X23300595Y-126685714D01*
X23300595Y-125733333D02*
X23395833Y-125685714D01*
X23586309Y-125685714D01*
X23681547Y-125733333D01*
X23729166Y-125780952D01*
X23776785Y-125876190D01*
X23776785Y-126161904D01*
X23729166Y-126257142D01*
X23681547Y-126304761D01*
X23586309Y-126352380D01*
X23395833Y-126352380D01*
X23300595Y-126304761D01*
X81828571Y-122300000D02*
X81876190Y-122157142D01*
X81923809Y-122109523D01*
X82019047Y-122061904D01*
X82161904Y-122061904D01*
X82257142Y-122109523D01*
X82304761Y-122157142D01*
X82352380Y-122252380D01*
X82352380Y-122633333D01*
X81352380Y-122633333D01*
X81352380Y-122300000D01*
X81400000Y-122204761D01*
X81447619Y-122157142D01*
X81542857Y-122109523D01*
X81638095Y-122109523D01*
X81733333Y-122157142D01*
X81780952Y-122204761D01*
X81828571Y-122300000D01*
X81828571Y-122633333D01*
X82352380Y-121633333D02*
X81685714Y-121633333D01*
X81352380Y-121633333D02*
X81400000Y-121680952D01*
X81447619Y-121633333D01*
X81400000Y-121585714D01*
X81352380Y-121633333D01*
X81447619Y-121633333D01*
X82352380Y-120728571D02*
X81828571Y-120728571D01*
X81733333Y-120776190D01*
X81685714Y-120871428D01*
X81685714Y-121061904D01*
X81733333Y-121157142D01*
X82304761Y-120728571D02*
X82352380Y-120823809D01*
X82352380Y-121061904D01*
X82304761Y-121157142D01*
X82209523Y-121204761D01*
X82114285Y-121204761D01*
X82019047Y-121157142D01*
X81971428Y-121061904D01*
X81971428Y-120823809D01*
X81923809Y-120728571D01*
X82304761Y-120300000D02*
X82352380Y-120204761D01*
X82352380Y-120014285D01*
X82304761Y-119919047D01*
X82209523Y-119871428D01*
X82161904Y-119871428D01*
X82066666Y-119919047D01*
X82019047Y-120014285D01*
X82019047Y-120157142D01*
X81971428Y-120252380D01*
X81876190Y-120300000D01*
X81828571Y-120300000D01*
X81733333Y-120252380D01*
X81685714Y-120157142D01*
X81685714Y-120014285D01*
X81733333Y-119919047D01*
X82447619Y-119680952D02*
X82447619Y-118919047D01*
X82352380Y-118680952D02*
X81352380Y-118680952D01*
X81828571Y-118680952D02*
X81828571Y-118109523D01*
X82352380Y-118109523D02*
X81352380Y-118109523D01*
X82304761Y-117252380D02*
X82352380Y-117347619D01*
X82352380Y-117538095D01*
X82304761Y-117633333D01*
X82209523Y-117680952D01*
X81828571Y-117680952D01*
X81733333Y-117633333D01*
X81685714Y-117538095D01*
X81685714Y-117347619D01*
X81733333Y-117252380D01*
X81828571Y-117204761D01*
X81923809Y-117204761D01*
X82019047Y-117680952D01*
X82352380Y-116347619D02*
X81828571Y-116347619D01*
X81733333Y-116395238D01*
X81685714Y-116490476D01*
X81685714Y-116680952D01*
X81733333Y-116776190D01*
X82304761Y-116347619D02*
X82352380Y-116442857D01*
X82352380Y-116680952D01*
X82304761Y-116776190D01*
X82209523Y-116823809D01*
X82114285Y-116823809D01*
X82019047Y-116776190D01*
X81971428Y-116680952D01*
X81971428Y-116442857D01*
X81923809Y-116347619D01*
X82352380Y-115442857D02*
X81352380Y-115442857D01*
X82304761Y-115442857D02*
X82352380Y-115538095D01*
X82352380Y-115728571D01*
X82304761Y-115823809D01*
X82257142Y-115871428D01*
X82161904Y-115919047D01*
X81876190Y-115919047D01*
X81780952Y-115871428D01*
X81733333Y-115823809D01*
X81685714Y-115728571D01*
X81685714Y-115538095D01*
X81733333Y-115442857D01*
X82304761Y-114585714D02*
X82352380Y-114680952D01*
X82352380Y-114871428D01*
X82304761Y-114966666D01*
X82209523Y-115014285D01*
X81828571Y-115014285D01*
X81733333Y-114966666D01*
X81685714Y-114871428D01*
X81685714Y-114680952D01*
X81733333Y-114585714D01*
X81828571Y-114538095D01*
X81923809Y-114538095D01*
X82019047Y-115014285D01*
X82352380Y-114109523D02*
X81685714Y-114109523D01*
X81876190Y-114109523D02*
X81780952Y-114061904D01*
X81733333Y-114014285D01*
X81685714Y-113919047D01*
X81685714Y-113823809D01*
X70452380Y-123023809D02*
X69452380Y-123023809D01*
X69452380Y-122785714D01*
X69500000Y-122642857D01*
X69595238Y-122547619D01*
X69690476Y-122500000D01*
X69880952Y-122452380D01*
X70023809Y-122452380D01*
X70214285Y-122500000D01*
X70309523Y-122547619D01*
X70404761Y-122642857D01*
X70452380Y-122785714D01*
X70452380Y-123023809D01*
X70166666Y-122071428D02*
X70166666Y-121595238D01*
X70452380Y-122166666D02*
X69452380Y-121833333D01*
X70452380Y-121500000D01*
X70357142Y-120595238D02*
X70404761Y-120642857D01*
X70452380Y-120785714D01*
X70452380Y-120880952D01*
X70404761Y-121023809D01*
X70309523Y-121119047D01*
X70214285Y-121166666D01*
X70023809Y-121214285D01*
X69880952Y-121214285D01*
X69690476Y-121166666D01*
X69595238Y-121119047D01*
X69500000Y-121023809D01*
X69452380Y-120880952D01*
X69452380Y-120785714D01*
X69500000Y-120642857D01*
X69547619Y-120595238D01*
X70547619Y-120404761D02*
X70547619Y-119642857D01*
X70452380Y-118880952D02*
X70452380Y-119452380D01*
X70452380Y-119166666D02*
X69452380Y-119166666D01*
X69595238Y-119261904D01*
X69690476Y-119357142D01*
X69738095Y-119452380D01*
X69547619Y-118500000D02*
X69500000Y-118452380D01*
X69452380Y-118357142D01*
X69452380Y-118119047D01*
X69500000Y-118023809D01*
X69547619Y-117976190D01*
X69642857Y-117928571D01*
X69738095Y-117928571D01*
X69880952Y-117976190D01*
X70452380Y-118547619D01*
X70452380Y-117928571D01*
X70071428Y-117500000D02*
X70071428Y-116738095D01*
X70452380Y-116261904D02*
X69452380Y-116261904D01*
X69833333Y-116261904D02*
X69785714Y-116166666D01*
X69785714Y-115976190D01*
X69833333Y-115880952D01*
X69880952Y-115833333D01*
X69976190Y-115785714D01*
X70261904Y-115785714D01*
X70357142Y-115833333D01*
X70404761Y-115880952D01*
X70452380Y-115976190D01*
X70452380Y-116166666D01*
X70404761Y-116261904D01*
X70452380Y-115357142D02*
X69785714Y-115357142D01*
X69452380Y-115357142D02*
X69500000Y-115404761D01*
X69547619Y-115357142D01*
X69500000Y-115309523D01*
X69452380Y-115357142D01*
X69547619Y-115357142D01*
X69785714Y-115023809D02*
X69785714Y-114642857D01*
X69452380Y-114880952D02*
X70309523Y-114880952D01*
X70404761Y-114833333D01*
X70452380Y-114738095D01*
X70452380Y-114642857D01*
X70404761Y-114357142D02*
X70452380Y-114261904D01*
X70452380Y-114071428D01*
X70404761Y-113976190D01*
X70309523Y-113928571D01*
X70261904Y-113928571D01*
X70166666Y-113976190D01*
X70119047Y-114071428D01*
X70119047Y-114214285D01*
X70071428Y-114309523D01*
X69976190Y-114357142D01*
X69928571Y-114357142D01*
X69833333Y-114309523D01*
X69785714Y-114214285D01*
X69785714Y-114071428D01*
X69833333Y-113976190D01*
X12976190Y-121152380D02*
X13642857Y-121152380D01*
X13214285Y-122152380D01*
X14023809Y-122057142D02*
X14071428Y-122104761D01*
X14023809Y-122152380D01*
X13976190Y-122104761D01*
X14023809Y-122057142D01*
X14023809Y-122152380D01*
X15023809Y-122152380D02*
X14452380Y-122152380D01*
X14738095Y-122152380D02*
X14738095Y-121152380D01*
X14642857Y-121295238D01*
X14547619Y-121390476D01*
X14452380Y-121438095D01*
X15928571Y-121152380D02*
X15452380Y-121152380D01*
X15404761Y-121628571D01*
X15452380Y-121580952D01*
X15547619Y-121533333D01*
X15785714Y-121533333D01*
X15880952Y-121580952D01*
X15928571Y-121628571D01*
X15976190Y-121723809D01*
X15976190Y-121961904D01*
X15928571Y-122057142D01*
X15880952Y-122104761D01*
X15785714Y-122152380D01*
X15547619Y-122152380D01*
X15452380Y-122104761D01*
X15404761Y-122057142D01*
X16404761Y-122152380D02*
X16404761Y-121152380D01*
X16976190Y-122152380D02*
X16547619Y-121580952D01*
X16976190Y-121152380D02*
X16404761Y-121723809D01*
X17976190Y-121152380D02*
X18642857Y-121152380D01*
X18214285Y-122152380D01*
X19023809Y-122057142D02*
X19071428Y-122104761D01*
X19023809Y-122152380D01*
X18976190Y-122104761D01*
X19023809Y-122057142D01*
X19023809Y-122152380D01*
X19642857Y-121580952D02*
X19547619Y-121533333D01*
X19500000Y-121485714D01*
X19452380Y-121390476D01*
X19452380Y-121342857D01*
X19500000Y-121247619D01*
X19547619Y-121200000D01*
X19642857Y-121152380D01*
X19833333Y-121152380D01*
X19928571Y-121200000D01*
X19976190Y-121247619D01*
X20023809Y-121342857D01*
X20023809Y-121390476D01*
X19976190Y-121485714D01*
X19928571Y-121533333D01*
X19833333Y-121580952D01*
X19642857Y-121580952D01*
X19547619Y-121628571D01*
X19500000Y-121676190D01*
X19452380Y-121771428D01*
X19452380Y-121961904D01*
X19500000Y-122057142D01*
X19547619Y-122104761D01*
X19642857Y-122152380D01*
X19833333Y-122152380D01*
X19928571Y-122104761D01*
X19976190Y-122057142D01*
X20023809Y-121961904D01*
X20023809Y-121771428D01*
X19976190Y-121676190D01*
X19928571Y-121628571D01*
X19833333Y-121580952D01*
X20357142Y-121152380D02*
X21023809Y-121152380D01*
X20595238Y-122152380D01*
X21404761Y-122152380D02*
X21404761Y-121152380D01*
X21976190Y-122152380D02*
X21547619Y-121580952D01*
X21976190Y-121152380D02*
X21404761Y-121723809D01*
X53333333Y-155152380D02*
X52761904Y-155152380D01*
X53047619Y-155152380D02*
X53047619Y-154152380D01*
X52952380Y-154295238D01*
X52857142Y-154390476D01*
X52761904Y-154438095D01*
X53952380Y-154152380D02*
X54047619Y-154152380D01*
X54142857Y-154200000D01*
X54190476Y-154247619D01*
X54238095Y-154342857D01*
X54285714Y-154533333D01*
X54285714Y-154771428D01*
X54238095Y-154961904D01*
X54190476Y-155057142D01*
X54142857Y-155104761D01*
X54047619Y-155152380D01*
X53952380Y-155152380D01*
X53857142Y-155104761D01*
X53809523Y-155057142D01*
X53761904Y-154961904D01*
X53714285Y-154771428D01*
X53714285Y-154533333D01*
X53761904Y-154342857D01*
X53809523Y-154247619D01*
X53857142Y-154200000D01*
X53952380Y-154152380D01*
X54904761Y-154152380D02*
X55000000Y-154152380D01*
X55095238Y-154200000D01*
X55142857Y-154247619D01*
X55190476Y-154342857D01*
X55238095Y-154533333D01*
X55238095Y-154771428D01*
X55190476Y-154961904D01*
X55142857Y-155057142D01*
X55095238Y-155104761D01*
X55000000Y-155152380D01*
X54904761Y-155152380D01*
X54809523Y-155104761D01*
X54761904Y-155057142D01*
X54714285Y-154961904D01*
X54666666Y-154771428D01*
X54666666Y-154533333D01*
X54714285Y-154342857D01*
X54761904Y-154247619D01*
X54809523Y-154200000D01*
X54904761Y-154152380D01*
X42933333Y-148152380D02*
X42361904Y-148152380D01*
X42647619Y-148152380D02*
X42647619Y-147152380D01*
X42552380Y-147295238D01*
X42457142Y-147390476D01*
X42361904Y-147438095D01*
X43790476Y-147485714D02*
X43790476Y-148152380D01*
X43552380Y-147104761D02*
X43314285Y-147819047D01*
X43933333Y-147819047D01*
X44504761Y-147152380D02*
X44600000Y-147152380D01*
X44695238Y-147200000D01*
X44742857Y-147247619D01*
X44790476Y-147342857D01*
X44838095Y-147533333D01*
X44838095Y-147771428D01*
X44790476Y-147961904D01*
X44742857Y-148057142D01*
X44695238Y-148104761D01*
X44600000Y-148152380D01*
X44504761Y-148152380D01*
X44409523Y-148104761D01*
X44361904Y-148057142D01*
X44314285Y-147961904D01*
X44266666Y-147771428D01*
X44266666Y-147533333D01*
X44314285Y-147342857D01*
X44361904Y-147247619D01*
X44409523Y-147200000D01*
X44504761Y-147152380D01*
X23176190Y-121152380D02*
X23795238Y-121152380D01*
X23461904Y-121533333D01*
X23604761Y-121533333D01*
X23700000Y-121580952D01*
X23747619Y-121628571D01*
X23795238Y-121723809D01*
X23795238Y-121961904D01*
X23747619Y-122057142D01*
X23700000Y-122104761D01*
X23604761Y-122152380D01*
X23319047Y-122152380D01*
X23223809Y-122104761D01*
X23176190Y-122057142D01*
X24223809Y-122057142D02*
X24271428Y-122104761D01*
X24223809Y-122152380D01*
X24176190Y-122104761D01*
X24223809Y-122057142D01*
X24223809Y-122152380D01*
X24604761Y-121152380D02*
X25271428Y-121152380D01*
X24842857Y-122152380D01*
X26128571Y-121152380D02*
X25652380Y-121152380D01*
X25604761Y-121628571D01*
X25652380Y-121580952D01*
X25747619Y-121533333D01*
X25985714Y-121533333D01*
X26080952Y-121580952D01*
X26128571Y-121628571D01*
X26176190Y-121723809D01*
X26176190Y-121961904D01*
X26128571Y-122057142D01*
X26080952Y-122104761D01*
X25985714Y-122152380D01*
X25747619Y-122152380D01*
X25652380Y-122104761D01*
X25604761Y-122057142D01*
X26604761Y-122152380D02*
X26604761Y-121152380D01*
X27176190Y-122152380D02*
X26747619Y-121580952D01*
X27176190Y-121152380D02*
X26604761Y-121723809D01*
X70733333Y-155352380D02*
X70161904Y-155352380D01*
X70447619Y-155352380D02*
X70447619Y-154352380D01*
X70352380Y-154495238D01*
X70257142Y-154590476D01*
X70161904Y-154638095D01*
X71352380Y-154352380D02*
X71447619Y-154352380D01*
X71542857Y-154400000D01*
X71590476Y-154447619D01*
X71638095Y-154542857D01*
X71685714Y-154733333D01*
X71685714Y-154971428D01*
X71638095Y-155161904D01*
X71590476Y-155257142D01*
X71542857Y-155304761D01*
X71447619Y-155352380D01*
X71352380Y-155352380D01*
X71257142Y-155304761D01*
X71209523Y-155257142D01*
X71161904Y-155161904D01*
X71114285Y-154971428D01*
X71114285Y-154733333D01*
X71161904Y-154542857D01*
X71209523Y-154447619D01*
X71257142Y-154400000D01*
X71352380Y-154352380D01*
X72304761Y-154352380D02*
X72400000Y-154352380D01*
X72495238Y-154400000D01*
X72542857Y-154447619D01*
X72590476Y-154542857D01*
X72638095Y-154733333D01*
X72638095Y-154971428D01*
X72590476Y-155161904D01*
X72542857Y-155257142D01*
X72495238Y-155304761D01*
X72400000Y-155352380D01*
X72304761Y-155352380D01*
X72209523Y-155304761D01*
X72161904Y-155257142D01*
X72114285Y-155161904D01*
X72066666Y-154971428D01*
X72066666Y-154733333D01*
X72114285Y-154542857D01*
X72161904Y-154447619D01*
X72209523Y-154400000D01*
X72304761Y-154352380D01*
X56414285Y-149452380D02*
X57033333Y-149452380D01*
X56700000Y-149833333D01*
X56842857Y-149833333D01*
X56938095Y-149880952D01*
X56985714Y-149928571D01*
X57033333Y-150023809D01*
X57033333Y-150261904D01*
X56985714Y-150357142D01*
X56938095Y-150404761D01*
X56842857Y-150452380D01*
X56557142Y-150452380D01*
X56461904Y-150404761D01*
X56414285Y-150357142D01*
X57652380Y-149452380D02*
X57747619Y-149452380D01*
X57842857Y-149500000D01*
X57890476Y-149547619D01*
X57938095Y-149642857D01*
X57985714Y-149833333D01*
X57985714Y-150071428D01*
X57938095Y-150261904D01*
X57890476Y-150357142D01*
X57842857Y-150404761D01*
X57747619Y-150452380D01*
X57652380Y-150452380D01*
X57557142Y-150404761D01*
X57509523Y-150357142D01*
X57461904Y-150261904D01*
X57414285Y-150071428D01*
X57414285Y-149833333D01*
X57461904Y-149642857D01*
X57509523Y-149547619D01*
X57557142Y-149500000D01*
X57652380Y-149452380D01*
X58604761Y-149452380D02*
X58700000Y-149452380D01*
X58795238Y-149500000D01*
X58842857Y-149547619D01*
X58890476Y-149642857D01*
X58938095Y-149833333D01*
X58938095Y-150071428D01*
X58890476Y-150261904D01*
X58842857Y-150357142D01*
X58795238Y-150404761D01*
X58700000Y-150452380D01*
X58604761Y-150452380D01*
X58509523Y-150404761D01*
X58461904Y-150357142D01*
X58414285Y-150261904D01*
X58366666Y-150071428D01*
X58366666Y-149833333D01*
X58414285Y-149642857D01*
X58461904Y-149547619D01*
X58509523Y-149500000D01*
X58604761Y-149452380D01*
X43352380Y-89214285D02*
X43352380Y-89785714D01*
X43352380Y-89500000D02*
X42352380Y-89500000D01*
X42495238Y-89595238D01*
X42590476Y-89690476D01*
X42638095Y-89785714D01*
X43352380Y-88785714D02*
X42352380Y-88785714D01*
X43352380Y-88214285D02*
X42780952Y-88642857D01*
X42352380Y-88214285D02*
X42923809Y-88785714D01*
X42738095Y-96452380D02*
X42261904Y-96452380D01*
X42214285Y-96928571D01*
X42261904Y-96880952D01*
X42357142Y-96833333D01*
X42595238Y-96833333D01*
X42690476Y-96880952D01*
X42738095Y-96928571D01*
X42785714Y-97023809D01*
X42785714Y-97261904D01*
X42738095Y-97357142D01*
X42690476Y-97404761D01*
X42595238Y-97452380D01*
X42357142Y-97452380D01*
X42261904Y-97404761D01*
X42214285Y-97357142D01*
X43214285Y-97452380D02*
X43214285Y-96452380D01*
X43785714Y-97452380D02*
X43357142Y-96880952D01*
X43785714Y-96452380D02*
X43214285Y-97023809D01*
X50023809Y-98547619D02*
X50071428Y-98500000D01*
X50166666Y-98452380D01*
X50404761Y-98452380D01*
X50500000Y-98500000D01*
X50547619Y-98547619D01*
X50595238Y-98642857D01*
X50595238Y-98738095D01*
X50547619Y-98880952D01*
X49976190Y-99452380D01*
X50595238Y-99452380D01*
X51023809Y-99357142D02*
X51071428Y-99404761D01*
X51023809Y-99452380D01*
X50976190Y-99404761D01*
X51023809Y-99357142D01*
X51023809Y-99452380D01*
X52023809Y-99452380D02*
X51452380Y-99452380D01*
X51738095Y-99452380D02*
X51738095Y-98452380D01*
X51642857Y-98595238D01*
X51547619Y-98690476D01*
X51452380Y-98738095D01*
X52928571Y-98452380D02*
X52452380Y-98452380D01*
X52404761Y-98928571D01*
X52452380Y-98880952D01*
X52547619Y-98833333D01*
X52785714Y-98833333D01*
X52880952Y-98880952D01*
X52928571Y-98928571D01*
X52976190Y-99023809D01*
X52976190Y-99261904D01*
X52928571Y-99357142D01*
X52880952Y-99404761D01*
X52785714Y-99452380D01*
X52547619Y-99452380D01*
X52452380Y-99404761D01*
X52404761Y-99357142D01*
X53404761Y-99452380D02*
X53404761Y-98452380D01*
X53976190Y-99452380D02*
X53547619Y-98880952D01*
X53976190Y-98452380D02*
X53404761Y-99023809D01*
X33361904Y-158047619D02*
X33409523Y-158000000D01*
X33504761Y-157952380D01*
X33742857Y-157952380D01*
X33838095Y-158000000D01*
X33885714Y-158047619D01*
X33933333Y-158142857D01*
X33933333Y-158238095D01*
X33885714Y-158380952D01*
X33314285Y-158952380D01*
X33933333Y-158952380D01*
X34314285Y-158047619D02*
X34361904Y-158000000D01*
X34457142Y-157952380D01*
X34695238Y-157952380D01*
X34790476Y-158000000D01*
X34838095Y-158047619D01*
X34885714Y-158142857D01*
X34885714Y-158238095D01*
X34838095Y-158380952D01*
X34266666Y-158952380D01*
X34885714Y-158952380D01*
X35504761Y-157952380D02*
X35600000Y-157952380D01*
X35695238Y-158000000D01*
X35742857Y-158047619D01*
X35790476Y-158142857D01*
X35838095Y-158333333D01*
X35838095Y-158571428D01*
X35790476Y-158761904D01*
X35742857Y-158857142D01*
X35695238Y-158904761D01*
X35600000Y-158952380D01*
X35504761Y-158952380D01*
X35409523Y-158904761D01*
X35361904Y-158857142D01*
X35314285Y-158761904D01*
X35266666Y-158571428D01*
X35266666Y-158333333D01*
X35314285Y-158142857D01*
X35361904Y-158047619D01*
X35409523Y-158000000D01*
X35504761Y-157952380D01*
X18652380Y-153766666D02*
X18652380Y-154338095D01*
X18652380Y-154052380D02*
X17652380Y-154052380D01*
X17795238Y-154147619D01*
X17890476Y-154242857D01*
X17938095Y-154338095D01*
X17652380Y-153147619D02*
X17652380Y-153052380D01*
X17700000Y-152957142D01*
X17747619Y-152909523D01*
X17842857Y-152861904D01*
X18033333Y-152814285D01*
X18271428Y-152814285D01*
X18461904Y-152861904D01*
X18557142Y-152909523D01*
X18604761Y-152957142D01*
X18652380Y-153052380D01*
X18652380Y-153147619D01*
X18604761Y-153242857D01*
X18557142Y-153290476D01*
X18461904Y-153338095D01*
X18271428Y-153385714D01*
X18033333Y-153385714D01*
X17842857Y-153338095D01*
X17747619Y-153290476D01*
X17700000Y-153242857D01*
X17652380Y-153147619D01*
X17652380Y-152195238D02*
X17652380Y-152100000D01*
X17700000Y-152004761D01*
X17747619Y-151957142D01*
X17842857Y-151909523D01*
X18033333Y-151861904D01*
X18271428Y-151861904D01*
X18461904Y-151909523D01*
X18557142Y-151957142D01*
X18604761Y-152004761D01*
X18652380Y-152100000D01*
X18652380Y-152195238D01*
X18604761Y-152290476D01*
X18557142Y-152338095D01*
X18461904Y-152385714D01*
X18271428Y-152433333D01*
X18033333Y-152433333D01*
X17842857Y-152385714D01*
X17747619Y-152338095D01*
X17700000Y-152290476D01*
X17652380Y-152195238D01*
X15348214Y-148952380D02*
X14776785Y-148952380D01*
X15062500Y-148952380D02*
X15062500Y-147952380D01*
X14967261Y-148095238D01*
X14872023Y-148190476D01*
X14776785Y-148238095D01*
X15776785Y-148952380D02*
X15776785Y-147952380D01*
X16348214Y-148952380D02*
X15919642Y-148380952D01*
X16348214Y-147952380D02*
X15776785Y-148523809D01*
X34571428Y-93202380D02*
X34000000Y-93202380D01*
X34285714Y-93202380D02*
X34285714Y-92202380D01*
X34190476Y-92345238D01*
X34095238Y-92440476D01*
X34000000Y-92488095D01*
X35000000Y-93107142D02*
X35047619Y-93154761D01*
X35000000Y-93202380D01*
X34952380Y-93154761D01*
X35000000Y-93107142D01*
X35000000Y-93202380D01*
X35380952Y-92202380D02*
X36047619Y-92202380D01*
X35619047Y-93202380D01*
X36428571Y-93202380D02*
X36428571Y-92202380D01*
X37000000Y-93202380D02*
X36571428Y-92630952D01*
X37000000Y-92202380D02*
X36428571Y-92773809D01*
X23666666Y-103352380D02*
X24285714Y-103352380D01*
X23952380Y-103733333D01*
X24095238Y-103733333D01*
X24190476Y-103780952D01*
X24238095Y-103828571D01*
X24285714Y-103923809D01*
X24285714Y-104161904D01*
X24238095Y-104257142D01*
X24190476Y-104304761D01*
X24095238Y-104352380D01*
X23809523Y-104352380D01*
X23714285Y-104304761D01*
X23666666Y-104257142D01*
X24714285Y-104352380D02*
X24714285Y-103352380D01*
X25285714Y-104352380D02*
X24857142Y-103780952D01*
X25285714Y-103352380D02*
X24714285Y-103923809D01*
X29476190Y-98685714D02*
X29476190Y-99352380D01*
X29238095Y-98304761D02*
X29000000Y-99019047D01*
X29619047Y-99019047D01*
X30000000Y-99257142D02*
X30047619Y-99304761D01*
X30000000Y-99352380D01*
X29952380Y-99304761D01*
X30000000Y-99257142D01*
X30000000Y-99352380D01*
X31000000Y-99352380D02*
X30428571Y-99352380D01*
X30714285Y-99352380D02*
X30714285Y-98352380D01*
X30619047Y-98495238D01*
X30523809Y-98590476D01*
X30428571Y-98638095D01*
X31428571Y-99352380D02*
X31428571Y-98352380D01*
X32000000Y-99352380D02*
X31571428Y-98780952D01*
X32000000Y-98352380D02*
X31428571Y-98923809D01*
X29814285Y-145352380D02*
X29242857Y-145352380D01*
X29528571Y-145352380D02*
X29528571Y-144352380D01*
X29433333Y-144495238D01*
X29338095Y-144590476D01*
X29242857Y-144638095D01*
X30242857Y-145352380D02*
X30242857Y-144352380D01*
X30576190Y-145066666D01*
X30909523Y-144352380D01*
X30909523Y-145352380D01*
X13302380Y-144723809D02*
X13302380Y-144104761D01*
X13683333Y-144438095D01*
X13683333Y-144295238D01*
X13730952Y-144200000D01*
X13778571Y-144152380D01*
X13873809Y-144104761D01*
X14111904Y-144104761D01*
X14207142Y-144152380D01*
X14254761Y-144200000D01*
X14302380Y-144295238D01*
X14302380Y-144580952D01*
X14254761Y-144676190D01*
X14207142Y-144723809D01*
X14207142Y-143676190D02*
X14254761Y-143628571D01*
X14302380Y-143676190D01*
X14254761Y-143723809D01*
X14207142Y-143676190D01*
X14302380Y-143676190D01*
X13302380Y-142771428D02*
X13302380Y-142961904D01*
X13350000Y-143057142D01*
X13397619Y-143104761D01*
X13540476Y-143200000D01*
X13730952Y-143247619D01*
X14111904Y-143247619D01*
X14207142Y-143200000D01*
X14254761Y-143152380D01*
X14302380Y-143057142D01*
X14302380Y-142866666D01*
X14254761Y-142771428D01*
X14207142Y-142723809D01*
X14111904Y-142676190D01*
X13873809Y-142676190D01*
X13778571Y-142723809D01*
X13730952Y-142771428D01*
X13683333Y-142866666D01*
X13683333Y-143057142D01*
X13730952Y-143152380D01*
X13778571Y-143200000D01*
X13873809Y-143247619D01*
X13302380Y-141771428D02*
X13302380Y-142247619D01*
X13778571Y-142295238D01*
X13730952Y-142247619D01*
X13683333Y-142152380D01*
X13683333Y-141914285D01*
X13730952Y-141819047D01*
X13778571Y-141771428D01*
X13873809Y-141723809D01*
X14111904Y-141723809D01*
X14207142Y-141771428D01*
X14254761Y-141819047D01*
X14302380Y-141914285D01*
X14302380Y-142152380D01*
X14254761Y-142247619D01*
X14207142Y-142295238D01*
X14302380Y-141295238D02*
X13302380Y-141295238D01*
X14302380Y-140723809D02*
X13730952Y-141152380D01*
X13302380Y-140723809D02*
X13873809Y-141295238D01*
X25152380Y-141814285D02*
X25152380Y-142385714D01*
X25152380Y-142100000D02*
X24152380Y-142100000D01*
X24295238Y-142195238D01*
X24390476Y-142290476D01*
X24438095Y-142385714D01*
X25152380Y-141385714D02*
X24152380Y-141385714D01*
X25152380Y-140814285D02*
X24580952Y-141242857D01*
X24152380Y-140814285D02*
X24723809Y-141385714D01*
X33495238Y-146252380D02*
X32923809Y-146252380D01*
X33209523Y-146252380D02*
X33209523Y-145252380D01*
X33114285Y-145395238D01*
X33019047Y-145490476D01*
X32923809Y-145538095D01*
X34447619Y-146252380D02*
X33876190Y-146252380D01*
X34161904Y-146252380D02*
X34161904Y-145252380D01*
X34066666Y-145395238D01*
X33971428Y-145490476D01*
X33876190Y-145538095D01*
X34876190Y-146157142D02*
X34923809Y-146204761D01*
X34876190Y-146252380D01*
X34828571Y-146204761D01*
X34876190Y-146157142D01*
X34876190Y-146252380D01*
X35828571Y-145252380D02*
X35352380Y-145252380D01*
X35304761Y-145728571D01*
X35352380Y-145680952D01*
X35447619Y-145633333D01*
X35685714Y-145633333D01*
X35780952Y-145680952D01*
X35828571Y-145728571D01*
X35876190Y-145823809D01*
X35876190Y-146061904D01*
X35828571Y-146157142D01*
X35780952Y-146204761D01*
X35685714Y-146252380D01*
X35447619Y-146252380D01*
X35352380Y-146204761D01*
X35304761Y-146157142D01*
X36304761Y-146252380D02*
X36304761Y-145252380D01*
X36876190Y-146252380D02*
X36447619Y-145680952D01*
X36876190Y-145252380D02*
X36304761Y-145823809D01*
X35404761Y-151952380D02*
X34833333Y-151952380D01*
X35119047Y-151952380D02*
X35119047Y-150952380D01*
X35023809Y-151095238D01*
X34928571Y-151190476D01*
X34833333Y-151238095D01*
X35833333Y-151857142D02*
X35880952Y-151904761D01*
X35833333Y-151952380D01*
X35785714Y-151904761D01*
X35833333Y-151857142D01*
X35833333Y-151952380D01*
X36261904Y-151047619D02*
X36309523Y-151000000D01*
X36404761Y-150952380D01*
X36642857Y-150952380D01*
X36738095Y-151000000D01*
X36785714Y-151047619D01*
X36833333Y-151142857D01*
X36833333Y-151238095D01*
X36785714Y-151380952D01*
X36214285Y-151952380D01*
X36833333Y-151952380D01*
X37261904Y-151952380D02*
X37261904Y-151285714D01*
X37261904Y-151380952D02*
X37309523Y-151333333D01*
X37404761Y-151285714D01*
X37547619Y-151285714D01*
X37642857Y-151333333D01*
X37690476Y-151428571D01*
X37690476Y-151952380D01*
X37690476Y-151428571D02*
X37738095Y-151333333D01*
X37833333Y-151285714D01*
X37976190Y-151285714D01*
X38071428Y-151333333D01*
X38119047Y-151428571D01*
X38119047Y-151952380D01*
X43757142Y-153252380D02*
X43185714Y-153252380D01*
X43471428Y-153252380D02*
X43471428Y-152252380D01*
X43376190Y-152395238D01*
X43280952Y-152490476D01*
X43185714Y-152538095D01*
X44376190Y-152252380D02*
X44471428Y-152252380D01*
X44566666Y-152300000D01*
X44614285Y-152347619D01*
X44661904Y-152442857D01*
X44709523Y-152633333D01*
X44709523Y-152871428D01*
X44661904Y-153061904D01*
X44614285Y-153157142D01*
X44566666Y-153204761D01*
X44471428Y-153252380D01*
X44376190Y-153252380D01*
X44280952Y-153204761D01*
X44233333Y-153157142D01*
X44185714Y-153061904D01*
X44138095Y-152871428D01*
X44138095Y-152633333D01*
X44185714Y-152442857D01*
X44233333Y-152347619D01*
X44280952Y-152300000D01*
X44376190Y-152252380D01*
X45566666Y-152585714D02*
X45566666Y-153252380D01*
X45138095Y-152585714D02*
X45138095Y-153109523D01*
X45185714Y-153204761D01*
X45280952Y-153252380D01*
X45423809Y-153252380D01*
X45519047Y-153204761D01*
X45566666Y-153157142D01*
X15880952Y-100852380D02*
X15309523Y-100852380D01*
X15595238Y-100852380D02*
X15595238Y-99852380D01*
X15500000Y-99995238D01*
X15404761Y-100090476D01*
X15309523Y-100138095D01*
X16500000Y-99852380D02*
X16595238Y-99852380D01*
X16690476Y-99900000D01*
X16738095Y-99947619D01*
X16785714Y-100042857D01*
X16833333Y-100233333D01*
X16833333Y-100471428D01*
X16785714Y-100661904D01*
X16738095Y-100757142D01*
X16690476Y-100804761D01*
X16595238Y-100852380D01*
X16500000Y-100852380D01*
X16404761Y-100804761D01*
X16357142Y-100757142D01*
X16309523Y-100661904D01*
X16261904Y-100471428D01*
X16261904Y-100233333D01*
X16309523Y-100042857D01*
X16357142Y-99947619D01*
X16404761Y-99900000D01*
X16500000Y-99852380D01*
X17452380Y-99852380D02*
X17547619Y-99852380D01*
X17642857Y-99900000D01*
X17690476Y-99947619D01*
X17738095Y-100042857D01*
X17785714Y-100233333D01*
X17785714Y-100471428D01*
X17738095Y-100661904D01*
X17690476Y-100757142D01*
X17642857Y-100804761D01*
X17547619Y-100852380D01*
X17452380Y-100852380D01*
X17357142Y-100804761D01*
X17309523Y-100757142D01*
X17261904Y-100661904D01*
X17214285Y-100471428D01*
X17214285Y-100233333D01*
X17261904Y-100042857D01*
X17309523Y-99947619D01*
X17357142Y-99900000D01*
X17452380Y-99852380D01*
X18214285Y-100185714D02*
X18214285Y-101185714D01*
X18214285Y-100233333D02*
X18309523Y-100185714D01*
X18500000Y-100185714D01*
X18595238Y-100233333D01*
X18642857Y-100280952D01*
X18690476Y-100376190D01*
X18690476Y-100661904D01*
X18642857Y-100757142D01*
X18595238Y-100804761D01*
X18500000Y-100852380D01*
X18309523Y-100852380D01*
X18214285Y-100804761D01*
X53457142Y-150052380D02*
X52885714Y-150052380D01*
X53171428Y-150052380D02*
X53171428Y-149052380D01*
X53076190Y-149195238D01*
X52980952Y-149290476D01*
X52885714Y-149338095D01*
X54076190Y-149052380D02*
X54171428Y-149052380D01*
X54266666Y-149100000D01*
X54314285Y-149147619D01*
X54361904Y-149242857D01*
X54409523Y-149433333D01*
X54409523Y-149671428D01*
X54361904Y-149861904D01*
X54314285Y-149957142D01*
X54266666Y-150004761D01*
X54171428Y-150052380D01*
X54076190Y-150052380D01*
X53980952Y-150004761D01*
X53933333Y-149957142D01*
X53885714Y-149861904D01*
X53838095Y-149671428D01*
X53838095Y-149433333D01*
X53885714Y-149242857D01*
X53933333Y-149147619D01*
X53980952Y-149100000D01*
X54076190Y-149052380D01*
X55266666Y-149385714D02*
X55266666Y-150052380D01*
X54838095Y-149385714D02*
X54838095Y-149909523D01*
X54885714Y-150004761D01*
X54980952Y-150052380D01*
X55123809Y-150052380D01*
X55219047Y-150004761D01*
X55266666Y-149957142D01*
X36652380Y-163214285D02*
X36652380Y-163690476D01*
X37128571Y-163738095D01*
X37080952Y-163690476D01*
X37033333Y-163595238D01*
X37033333Y-163357142D01*
X37080952Y-163261904D01*
X37128571Y-163214285D01*
X37223809Y-163166666D01*
X37461904Y-163166666D01*
X37557142Y-163214285D01*
X37604761Y-163261904D01*
X37652380Y-163357142D01*
X37652380Y-163595238D01*
X37604761Y-163690476D01*
X37557142Y-163738095D01*
X36985714Y-162309523D02*
X37652380Y-162309523D01*
X36985714Y-162738095D02*
X37509523Y-162738095D01*
X37604761Y-162690476D01*
X37652380Y-162595238D01*
X37652380Y-162452380D01*
X37604761Y-162357142D01*
X37557142Y-162309523D01*
X29352380Y-109814285D02*
X29352380Y-110290476D01*
X29828571Y-110338095D01*
X29780952Y-110290476D01*
X29733333Y-110195238D01*
X29733333Y-109957142D01*
X29780952Y-109861904D01*
X29828571Y-109814285D01*
X29923809Y-109766666D01*
X30161904Y-109766666D01*
X30257142Y-109814285D01*
X30304761Y-109861904D01*
X30352380Y-109957142D01*
X30352380Y-110195238D01*
X30304761Y-110290476D01*
X30257142Y-110338095D01*
X29685714Y-108909523D02*
X30352380Y-108909523D01*
X29685714Y-109338095D02*
X30209523Y-109338095D01*
X30304761Y-109290476D01*
X30352380Y-109195238D01*
X30352380Y-109052380D01*
X30304761Y-108957142D01*
X30257142Y-108909523D01*
X56957142Y-155152380D02*
X56385714Y-155152380D01*
X56671428Y-155152380D02*
X56671428Y-154152380D01*
X56576190Y-154295238D01*
X56480952Y-154390476D01*
X56385714Y-154438095D01*
X57576190Y-154152380D02*
X57671428Y-154152380D01*
X57766666Y-154200000D01*
X57814285Y-154247619D01*
X57861904Y-154342857D01*
X57909523Y-154533333D01*
X57909523Y-154771428D01*
X57861904Y-154961904D01*
X57814285Y-155057142D01*
X57766666Y-155104761D01*
X57671428Y-155152380D01*
X57576190Y-155152380D01*
X57480952Y-155104761D01*
X57433333Y-155057142D01*
X57385714Y-154961904D01*
X57338095Y-154771428D01*
X57338095Y-154533333D01*
X57385714Y-154342857D01*
X57433333Y-154247619D01*
X57480952Y-154200000D01*
X57576190Y-154152380D01*
X58766666Y-154485714D02*
X58766666Y-155152380D01*
X58338095Y-154485714D02*
X58338095Y-155009523D01*
X58385714Y-155104761D01*
X58480952Y-155152380D01*
X58623809Y-155152380D01*
X58719047Y-155104761D01*
X58766666Y-155057142D01*
X57952380Y-84351785D02*
X57952380Y-84827976D01*
X58428571Y-84875595D01*
X58380952Y-84827976D01*
X58333333Y-84732738D01*
X58333333Y-84494642D01*
X58380952Y-84399404D01*
X58428571Y-84351785D01*
X58523809Y-84304166D01*
X58761904Y-84304166D01*
X58857142Y-84351785D01*
X58904761Y-84399404D01*
X58952380Y-84494642D01*
X58952380Y-84732738D01*
X58904761Y-84827976D01*
X58857142Y-84875595D01*
X58285714Y-83447023D02*
X58952380Y-83447023D01*
X58285714Y-83875595D02*
X58809523Y-83875595D01*
X58904761Y-83827976D01*
X58952380Y-83732738D01*
X58952380Y-83589880D01*
X58904761Y-83494642D01*
X58857142Y-83447023D01*
X70657142Y-150452380D02*
X70085714Y-150452380D01*
X70371428Y-150452380D02*
X70371428Y-149452380D01*
X70276190Y-149595238D01*
X70180952Y-149690476D01*
X70085714Y-149738095D01*
X71276190Y-149452380D02*
X71371428Y-149452380D01*
X71466666Y-149500000D01*
X71514285Y-149547619D01*
X71561904Y-149642857D01*
X71609523Y-149833333D01*
X71609523Y-150071428D01*
X71561904Y-150261904D01*
X71514285Y-150357142D01*
X71466666Y-150404761D01*
X71371428Y-150452380D01*
X71276190Y-150452380D01*
X71180952Y-150404761D01*
X71133333Y-150357142D01*
X71085714Y-150261904D01*
X71038095Y-150071428D01*
X71038095Y-149833333D01*
X71085714Y-149642857D01*
X71133333Y-149547619D01*
X71180952Y-149500000D01*
X71276190Y-149452380D01*
X72466666Y-149785714D02*
X72466666Y-150452380D01*
X72038095Y-149785714D02*
X72038095Y-150309523D01*
X72085714Y-150404761D01*
X72180952Y-150452380D01*
X72323809Y-150452380D01*
X72419047Y-150404761D01*
X72466666Y-150357142D01*
X39702380Y-86119047D02*
X39702380Y-86690476D01*
X39702380Y-86404761D02*
X38702380Y-86404761D01*
X38845238Y-86500000D01*
X38940476Y-86595238D01*
X38988095Y-86690476D01*
X38702380Y-85500000D02*
X38702380Y-85404761D01*
X38750000Y-85309523D01*
X38797619Y-85261904D01*
X38892857Y-85214285D01*
X39083333Y-85166666D01*
X39321428Y-85166666D01*
X39511904Y-85214285D01*
X39607142Y-85261904D01*
X39654761Y-85309523D01*
X39702380Y-85404761D01*
X39702380Y-85500000D01*
X39654761Y-85595238D01*
X39607142Y-85642857D01*
X39511904Y-85690476D01*
X39321428Y-85738095D01*
X39083333Y-85738095D01*
X38892857Y-85690476D01*
X38797619Y-85642857D01*
X38750000Y-85595238D01*
X38702380Y-85500000D01*
X38702380Y-84547619D02*
X38702380Y-84452380D01*
X38750000Y-84357142D01*
X38797619Y-84309523D01*
X38892857Y-84261904D01*
X39083333Y-84214285D01*
X39321428Y-84214285D01*
X39511904Y-84261904D01*
X39607142Y-84309523D01*
X39654761Y-84357142D01*
X39702380Y-84452380D01*
X39702380Y-84547619D01*
X39654761Y-84642857D01*
X39607142Y-84690476D01*
X39511904Y-84738095D01*
X39321428Y-84785714D01*
X39083333Y-84785714D01*
X38892857Y-84738095D01*
X38797619Y-84690476D01*
X38750000Y-84642857D01*
X38702380Y-84547619D01*
X39035714Y-83785714D02*
X40035714Y-83785714D01*
X39083333Y-83785714D02*
X39035714Y-83690476D01*
X39035714Y-83500000D01*
X39083333Y-83404761D01*
X39130952Y-83357142D01*
X39226190Y-83309523D01*
X39511904Y-83309523D01*
X39607142Y-83357142D01*
X39654761Y-83404761D01*
X39702380Y-83500000D01*
X39702380Y-83690476D01*
X39654761Y-83785714D01*
X53552380Y-164014285D02*
X53552380Y-164490476D01*
X54028571Y-164538095D01*
X53980952Y-164490476D01*
X53933333Y-164395238D01*
X53933333Y-164157142D01*
X53980952Y-164061904D01*
X54028571Y-164014285D01*
X54123809Y-163966666D01*
X54361904Y-163966666D01*
X54457142Y-164014285D01*
X54504761Y-164061904D01*
X54552380Y-164157142D01*
X54552380Y-164395238D01*
X54504761Y-164490476D01*
X54457142Y-164538095D01*
X53885714Y-163109523D02*
X54552380Y-163109523D01*
X53885714Y-163538095D02*
X54409523Y-163538095D01*
X54504761Y-163490476D01*
X54552380Y-163395238D01*
X54552380Y-163252380D01*
X54504761Y-163157142D01*
X54457142Y-163109523D01*
X48785714Y-101452380D02*
X48309523Y-101452380D01*
X48261904Y-101928571D01*
X48309523Y-101880952D01*
X48404761Y-101833333D01*
X48642857Y-101833333D01*
X48738095Y-101880952D01*
X48785714Y-101928571D01*
X48833333Y-102023809D01*
X48833333Y-102261904D01*
X48785714Y-102357142D01*
X48738095Y-102404761D01*
X48642857Y-102452380D01*
X48404761Y-102452380D01*
X48309523Y-102404761D01*
X48261904Y-102357142D01*
X49690476Y-101785714D02*
X49690476Y-102452380D01*
X49261904Y-101785714D02*
X49261904Y-102309523D01*
X49309523Y-102404761D01*
X49404761Y-102452380D01*
X49547619Y-102452380D01*
X49642857Y-102404761D01*
X49690476Y-102357142D01*
X22580952Y-139052380D02*
X22009523Y-139052380D01*
X22295238Y-139052380D02*
X22295238Y-138052380D01*
X22200000Y-138195238D01*
X22104761Y-138290476D01*
X22009523Y-138338095D01*
X23200000Y-138052380D02*
X23295238Y-138052380D01*
X23390476Y-138100000D01*
X23438095Y-138147619D01*
X23485714Y-138242857D01*
X23533333Y-138433333D01*
X23533333Y-138671428D01*
X23485714Y-138861904D01*
X23438095Y-138957142D01*
X23390476Y-139004761D01*
X23295238Y-139052380D01*
X23200000Y-139052380D01*
X23104761Y-139004761D01*
X23057142Y-138957142D01*
X23009523Y-138861904D01*
X22961904Y-138671428D01*
X22961904Y-138433333D01*
X23009523Y-138242857D01*
X23057142Y-138147619D01*
X23104761Y-138100000D01*
X23200000Y-138052380D01*
X24152380Y-138052380D02*
X24247619Y-138052380D01*
X24342857Y-138100000D01*
X24390476Y-138147619D01*
X24438095Y-138242857D01*
X24485714Y-138433333D01*
X24485714Y-138671428D01*
X24438095Y-138861904D01*
X24390476Y-138957142D01*
X24342857Y-139004761D01*
X24247619Y-139052380D01*
X24152380Y-139052380D01*
X24057142Y-139004761D01*
X24009523Y-138957142D01*
X23961904Y-138861904D01*
X23914285Y-138671428D01*
X23914285Y-138433333D01*
X23961904Y-138242857D01*
X24009523Y-138147619D01*
X24057142Y-138100000D01*
X24152380Y-138052380D01*
X25342857Y-138385714D02*
X25342857Y-139052380D01*
X24914285Y-138385714D02*
X24914285Y-138909523D01*
X24961904Y-139004761D01*
X25057142Y-139052380D01*
X25200000Y-139052380D01*
X25295238Y-139004761D01*
X25342857Y-138957142D01*
X17552380Y-147414285D02*
X17552380Y-147890476D01*
X18028571Y-147938095D01*
X17980952Y-147890476D01*
X17933333Y-147795238D01*
X17933333Y-147557142D01*
X17980952Y-147461904D01*
X18028571Y-147414285D01*
X18123809Y-147366666D01*
X18361904Y-147366666D01*
X18457142Y-147414285D01*
X18504761Y-147461904D01*
X18552380Y-147557142D01*
X18552380Y-147795238D01*
X18504761Y-147890476D01*
X18457142Y-147938095D01*
X17885714Y-146509523D02*
X18552380Y-146509523D01*
X17885714Y-146938095D02*
X18409523Y-146938095D01*
X18504761Y-146890476D01*
X18552380Y-146795238D01*
X18552380Y-146652380D01*
X18504761Y-146557142D01*
X18457142Y-146509523D01*
X21052380Y-94919047D02*
X21052380Y-95490476D01*
X21052380Y-95204761D02*
X20052380Y-95204761D01*
X20195238Y-95300000D01*
X20290476Y-95395238D01*
X20338095Y-95490476D01*
X20052380Y-94300000D02*
X20052380Y-94204761D01*
X20100000Y-94109523D01*
X20147619Y-94061904D01*
X20242857Y-94014285D01*
X20433333Y-93966666D01*
X20671428Y-93966666D01*
X20861904Y-94014285D01*
X20957142Y-94061904D01*
X21004761Y-94109523D01*
X21052380Y-94204761D01*
X21052380Y-94300000D01*
X21004761Y-94395238D01*
X20957142Y-94442857D01*
X20861904Y-94490476D01*
X20671428Y-94538095D01*
X20433333Y-94538095D01*
X20242857Y-94490476D01*
X20147619Y-94442857D01*
X20100000Y-94395238D01*
X20052380Y-94300000D01*
X20052380Y-93347619D02*
X20052380Y-93252380D01*
X20100000Y-93157142D01*
X20147619Y-93109523D01*
X20242857Y-93061904D01*
X20433333Y-93014285D01*
X20671428Y-93014285D01*
X20861904Y-93061904D01*
X20957142Y-93109523D01*
X21004761Y-93157142D01*
X21052380Y-93252380D01*
X21052380Y-93347619D01*
X21004761Y-93442857D01*
X20957142Y-93490476D01*
X20861904Y-93538095D01*
X20671428Y-93585714D01*
X20433333Y-93585714D01*
X20242857Y-93538095D01*
X20147619Y-93490476D01*
X20100000Y-93442857D01*
X20052380Y-93347619D01*
X20385714Y-92585714D02*
X21385714Y-92585714D01*
X20433333Y-92585714D02*
X20385714Y-92490476D01*
X20385714Y-92300000D01*
X20433333Y-92204761D01*
X20480952Y-92157142D01*
X20576190Y-92109523D01*
X20861904Y-92109523D01*
X20957142Y-92157142D01*
X21004761Y-92204761D01*
X21052380Y-92300000D01*
X21052380Y-92490476D01*
X21004761Y-92585714D01*
X22885714Y-98252380D02*
X22409523Y-98252380D01*
X22361904Y-98728571D01*
X22409523Y-98680952D01*
X22504761Y-98633333D01*
X22742857Y-98633333D01*
X22838095Y-98680952D01*
X22885714Y-98728571D01*
X22933333Y-98823809D01*
X22933333Y-99061904D01*
X22885714Y-99157142D01*
X22838095Y-99204761D01*
X22742857Y-99252380D01*
X22504761Y-99252380D01*
X22409523Y-99204761D01*
X22361904Y-99157142D01*
X23790476Y-98585714D02*
X23790476Y-99252380D01*
X23361904Y-98585714D02*
X23361904Y-99109523D01*
X23409523Y-99204761D01*
X23504761Y-99252380D01*
X23647619Y-99252380D01*
X23742857Y-99204761D01*
X23790476Y-99157142D01*
X21871428Y-144557142D02*
X21919047Y-144604761D01*
X21871428Y-144652380D01*
X21823809Y-144604761D01*
X21871428Y-144557142D01*
X21871428Y-144652380D01*
X22871428Y-144652380D02*
X22300000Y-144652380D01*
X22585714Y-144652380D02*
X22585714Y-143652380D01*
X22490476Y-143795238D01*
X22395238Y-143890476D01*
X22300000Y-143938095D01*
X23728571Y-143985714D02*
X23728571Y-144652380D01*
X23300000Y-143985714D02*
X23300000Y-144509523D01*
X23347619Y-144604761D01*
X23442857Y-144652380D01*
X23585714Y-144652380D01*
X23680952Y-144604761D01*
X23728571Y-144557142D01*
X32702380Y-85964285D02*
X32702380Y-86440476D01*
X33178571Y-86488095D01*
X33130952Y-86440476D01*
X33083333Y-86345238D01*
X33083333Y-86107142D01*
X33130952Y-86011904D01*
X33178571Y-85964285D01*
X33273809Y-85916666D01*
X33511904Y-85916666D01*
X33607142Y-85964285D01*
X33654761Y-86011904D01*
X33702380Y-86107142D01*
X33702380Y-86345238D01*
X33654761Y-86440476D01*
X33607142Y-86488095D01*
X33035714Y-85059523D02*
X33702380Y-85059523D01*
X33035714Y-85488095D02*
X33559523Y-85488095D01*
X33654761Y-85440476D01*
X33702380Y-85345238D01*
X33702380Y-85202380D01*
X33654761Y-85107142D01*
X33607142Y-85059523D01*
M02*
